solid OpenSCAD_Model
  facet normal 1 -0 0
    outer loop
      vertex 13.5 7 7
      vertex 13.5 10 0
      vertex 13.5 10 7
    endloop
  endfacet
  facet normal 1 0 0
    outer loop
      vertex 13.5 10 0
      vertex 13.5 7 7
      vertex 13.5 7 0
    endloop
  endfacet
  facet normal -1 0 0
    outer loop
      vertex 19.5 7 0
      vertex 19.5 10 7
      vertex 19.5 10 0
    endloop
  endfacet
  facet normal -1 -0 0
    outer loop
      vertex 19.5 10 7
      vertex 19.5 7 0
      vertex 19.5 7 7
    endloop
  endfacet
  facet normal 0 1 -0
    outer loop
      vertex 19.5 7 0
      vertex 18 7 7
      vertex 19.5 7 7
    endloop
  endfacet
  facet normal 0 1 0
    outer loop
      vertex 18 7 7
      vertex 19.5 7 0
      vertex 18 7 0
    endloop
  endfacet
  facet normal 0 1 -0
    outer loop
      vertex 15 7 0
      vertex 13.5 7 7
      vertex 15 7 7
    endloop
  endfacet
  facet normal 0 1 0
    outer loop
      vertex 13.5 7 7
      vertex 15 7 0
      vertex 13.5 7 0
    endloop
  endfacet
  facet normal 0 -1 0
    outer loop
      vertex 13.5 10 0
      vertex 19.5 10 7
      vertex 13.5 10 7
    endloop
  endfacet
  facet normal 0 -1 -0
    outer loop
      vertex 19.5 10 7
      vertex 13.5 10 0
      vertex 19.5 10 0
    endloop
  endfacet
  facet normal 1 -0 0
    outer loop
      vertex 15 0.00986671 7
      vertex 15 7 0
      vertex 15 7 7
    endloop
  endfacet
  facet normal 1 0 0
    outer loop
      vertex 15 7 0
      vertex 15 0.00986671 7
      vertex 15 0.00986671 0
    endloop
  endfacet
  facet normal -1 0 0
    outer loop
      vertex 18 0.00986671 0
      vertex 18 7 7
      vertex 18 7 0
    endloop
  endfacet
  facet normal -1 -0 0
    outer loop
      vertex 18 7 7
      vertex 18 0.00986671 0
      vertex 18 0.00986671 7
    endloop
  endfacet
  facet normal 0 -1 0
    outer loop
      vertex 5.31395 0.00986671 0
      vertex 15 0.00986671 7
      vertex 5.31395 0.00986671 7
    endloop
  endfacet
  facet normal 0 -1 -0
    outer loop
      vertex 15 0.00986671 7
      vertex 5.31395 0.00986671 0
      vertex 15 0.00986671 0
    endloop
  endfacet
  facet normal 0 -1 0
    outer loop
      vertex 18 0.00986671 0
      vertex 28.314 0.00986671 7
      vertex 18 0.00986671 7
    endloop
  endfacet
  facet normal 0 -1 -0
    outer loop
      vertex 28.314 0.00986671 7
      vertex 18 0.00986671 0
      vertex 28.314 0.00986671 0
    endloop
  endfacet
  facet normal -0.309017 0.951057 0
    outer loop
      vertex 11.5631 22.9114 0
      vertex 10.3711 22.5241 7
      vertex 11.5631 22.9114 7
    endloop
  endfacet
  facet normal -0.309017 0.951057 0
    outer loop
      vertex 10.3711 22.5241 7
      vertex 11.5631 22.9114 0
      vertex 10.3711 22.5241 0
    endloop
  endfacet
  facet normal -0 0 1
    outer loop
      vertex 12.814 22.9901 7
      vertex 19.5 10 7
      vertex 20.814 22.9901 7
    endloop
  endfacet
  facet normal -0 0 1
    outer loop
      vertex 8.45492 20.9389 7
      vertex 13.5 10 7
      vertex 12.814 22.9901 7
    endloop
  endfacet
  facet normal 0 0 1
    outer loop
      vertex 19.5 10 7
      vertex 12.814 22.9901 7
      vertex 13.5 10 7
    endloop
  endfacet
  facet normal -0 0 1
    outer loop
      vertex 13.5 7 7
      vertex 15 0.00986671 7
      vertex 15 7 7
    endloop
  endfacet
  facet normal 0 0 1
    outer loop
      vertex 8.45492 20.9389 7
      vertex 12.814 22.9901 7
      vertex 11.5631 22.9114 7
    endloop
  endfacet
  facet normal 0 0 1
    outer loop
      vertex 8.45492 20.9389 7
      vertex 11.5631 22.9114 7
      vertex 10.3711 22.5241 7
    endloop
  endfacet
  facet normal 0 0 1
    outer loop
      vertex 8.45492 20.9389 7
      vertex 10.3711 22.5241 7
      vertex 9.31288 21.8526 7
    endloop
  endfacet
  facet normal 0 0 1
    outer loop
      vertex 5.29078 6.41435 7
      vertex 13.5 10 7
      vertex 8.45492 20.9389 7
    endloop
  endfacet
  facet normal 0 -0 1
    outer loop
      vertex 5.77862 6.16578 7
      vertex 13.5 10 7
      vertex 5.29078 6.41435 7
    endloop
  endfacet
  facet normal 0 -0 1
    outer loop
      vertex 6.41435 5.29078 7
      vertex 13.5 7 7
      vertex 6.16578 5.77862 7
    endloop
  endfacet
  facet normal 0 0 1
    outer loop
      vertex 13.5 7 7
      vertex 6.41435 4.20922 7
      vertex 15 0.00986671 7
    endloop
  endfacet
  facet normal -0 0 1
    outer loop
      vertex 6.16578 3.72138 7
      vertex 15 0.00986671 7
      vertex 6.41435 4.20922 7
    endloop
  endfacet
  facet normal 0 0 1
    outer loop
      vertex 5.31395 0.00986671 7
      vertex 6.16578 3.72138 7
      vertex 5.77862 3.33422 7
    endloop
  endfacet
  facet normal 0 0 1
    outer loop
      vertex 6.16578 3.72138 7
      vertex 5.31395 0.00986671 7
      vertex 15 0.00986671 7
    endloop
  endfacet
  facet normal -0 0 1
    outer loop
      vertex 5.29078 3.08565 7
      vertex 5.31395 0.00986671 7
      vertex 5.77862 3.33422 7
    endloop
  endfacet
  facet normal -0 0 1
    outer loop
      vertex 4.75 3 7
      vertex 5.31395 0.00986671 7
      vertex 5.29078 3.08565 7
    endloop
  endfacet
  facet normal 0 0 1
    outer loop
      vertex 4.06309 0.0885639 7
      vertex 4.75 3 7
      vertex 4.20922 3.08565 7
    endloop
  endfacet
  facet normal 0 0 1
    outer loop
      vertex 4.75 3 7
      vertex 4.06309 0.0885639 7
      vertex 5.31395 0.00986671 7
    endloop
  endfacet
  facet normal 0 0 1
    outer loop
      vertex 2.8711 0.475865 7
      vertex 4.20922 3.08565 7
      vertex 3.72138 3.33422 7
    endloop
  endfacet
  facet normal 0 0 1
    outer loop
      vertex 1.81288 1.14743 7
      vertex 3.72138 3.33422 7
      vertex 3.33422 3.72138 7
    endloop
  endfacet
  facet normal 0 0 1
    outer loop
      vertex 0.954915 2.06107 7
      vertex 3.33422 3.72138 7
      vertex 3.08565 4.20922 7
    endloop
  endfacet
  facet normal 0 0 1
    outer loop
      vertex 4.20922 3.08565 7
      vertex 2.8711 0.475865 7
      vertex 4.06309 0.0885639 7
    endloop
  endfacet
  facet normal -0 0 1
    outer loop
      vertex 0.0394268 4.37333 7
      vertex 3.08565 4.20922 7
      vertex 3 4.75 7
    endloop
  endfacet
  facet normal 0 0 1
    outer loop
      vertex 6.41435 4.20922 7
      vertex 13.5 7 7
      vertex 6.5 4.75 7
    endloop
  endfacet
  facet normal 0 -0 1
    outer loop
      vertex 6.5 4.75 7
      vertex 13.5 7 7
      vertex 6.41435 5.29078 7
    endloop
  endfacet
  facet normal 0 0 1
    outer loop
      vertex 13.5 10 7
      vertex 6.16578 5.77862 7
      vertex 13.5 7 7
    endloop
  endfacet
  facet normal 0 -0 1
    outer loop
      vertex 6.16578 5.77862 7
      vertex 13.5 10 7
      vertex 5.77862 6.16578 7
    endloop
  endfacet
  facet normal 0 0 1
    outer loop
      vertex 8.45492 20.9389 7
      vertex 4.75 6.5 7
      vertex 5.29078 6.41435 7
    endloop
  endfacet
  facet normal -0 0 1
    outer loop
      vertex 0.954915 7.93893 7
      vertex 4.75 6.5 7
      vertex 8.45492 20.9389 7
    endloop
  endfacet
  facet normal 0 0 1
    outer loop
      vertex 4.75 6.5 7
      vertex 0.954915 7.93893 7
      vertex 4.20922 6.41435 7
    endloop
  endfacet
  facet normal 0 0 1
    outer loop
      vertex 4.20922 6.41435 7
      vertex 0.954915 7.93893 7
      vertex 3.72138 6.16578 7
    endloop
  endfacet
  facet normal 0 0 1
    outer loop
      vertex 3.72138 6.16578 7
      vertex 0.954915 7.93893 7
      vertex 3.33422 5.77862 7
    endloop
  endfacet
  facet normal 0 0 1
    outer loop
      vertex 3.72138 3.33422 7
      vertex 1.81288 1.14743 7
      vertex 2.8711 0.475865 7
    endloop
  endfacet
  facet normal 0 0 1
    outer loop
      vertex 0.0394268 5.62667 7
      vertex 3 4.75 7
      vertex 3.08565 5.29078 7
    endloop
  endfacet
  facet normal -0 0 1
    outer loop
      vertex 0.351118 6.84062 7
      vertex 3.33422 5.77862 7
      vertex 0.954915 7.93893 7
    endloop
  endfacet
  facet normal 0 0 1
    outer loop
      vertex 3.33422 5.77862 7
      vertex 0.351118 6.84062 7
      vertex 3.08565 5.29078 7
    endloop
  endfacet
  facet normal 0 0 1
    outer loop
      vertex 3.33422 3.72138 7
      vertex 0.954915 2.06107 7
      vertex 1.81288 1.14743 7
    endloop
  endfacet
  facet normal -0 0 1
    outer loop
      vertex 0.0394268 5.62667 7
      vertex 3.08565 5.29078 7
      vertex 0.351118 6.84062 7
    endloop
  endfacet
  facet normal 0 0 1
    outer loop
      vertex 3.08565 4.20922 7
      vertex 0.351118 3.15938 7
      vertex 0.954915 2.06107 7
    endloop
  endfacet
  facet normal 0 0 1
    outer loop
      vertex 3 4.75 7
      vertex 0.0394268 5.62667 7
      vertex 0.0394268 4.37333 7
    endloop
  endfacet
  facet normal 0 0 1
    outer loop
      vertex 3.08565 4.20922 7
      vertex 0.0394268 4.37333 7
      vertex 0.351118 3.15938 7
    endloop
  endfacet
  facet normal -0 0 1
    outer loop
      vertex 30.4143 5.29078 7
      vertex 33 5 7
      vertex 32.8429 6.24345 7
    endloop
  endfacet
  facet normal 0 0 1
    outer loop
      vertex 30.1658 5.77862 7
      vertex 32.8429 6.24345 7
      vertex 32.3815 7.40877 7
    endloop
  endfacet
  facet normal 0 0 1
    outer loop
      vertex 33 5 7
      vertex 30.4143 5.29078 7
      vertex 30.5 4.75 7
    endloop
  endfacet
  facet normal -0 0 1
    outer loop
      vertex 30.4143 4.20922 7
      vertex 32.8429 3.75655 7
      vertex 30.5 4.75 7
    endloop
  endfacet
  facet normal 0 0 1
    outer loop
      vertex 32.8429 3.75655 7
      vertex 30.4143 4.20922 7
      vertex 32.3815 2.59123 7
    endloop
  endfacet
  facet normal -0 0 1
    outer loop
      vertex 30.1658 3.72138 7
      vertex 32.3815 2.59123 7
      vertex 30.4143 4.20922 7
    endloop
  endfacet
  facet normal 0 0 1
    outer loop
      vertex 33 5 7
      vertex 30.5 4.75 7
      vertex 32.8429 3.75655 7
    endloop
  endfacet
  facet normal 0 0 1
    outer loop
      vertex 32.8429 6.24345 7
      vertex 30.1658 5.77862 7
      vertex 30.4143 5.29078 7
    endloop
  endfacet
  facet normal 0 0 1
    outer loop
      vertex 32.3815 7.40877 7
      vertex 29.7786 6.16578 7
      vertex 30.1658 5.77862 7
    endloop
  endfacet
  facet normal 0 0 1
    outer loop
      vertex 32.3815 7.40877 7
      vertex 29.2908 6.41435 7
      vertex 29.7786 6.16578 7
    endloop
  endfacet
  facet normal 0 0 1
    outer loop
      vertex 32.3815 7.40877 7
      vertex 28.75 6.5 7
      vertex 29.2908 6.41435 7
    endloop
  endfacet
  facet normal 0 0 1
    outer loop
      vertex 24.8815 20.4088 7
      vertex 28.75 6.5 7
      vertex 32.3815 7.40877 7
    endloop
  endfacet
  facet normal -0 0 1
    outer loop
      vertex 19.5 7 7
      vertex 27.3342 5.77862 7
      vertex 19.5 10 7
    endloop
  endfacet
  facet normal 0 0 1
    outer loop
      vertex 27.7214 6.16578 7
      vertex 19.5 10 7
      vertex 27.3342 5.77862 7
    endloop
  endfacet
  facet normal 0 0 1
    outer loop
      vertex 28.2092 6.41435 7
      vertex 19.5 10 7
      vertex 27.7214 6.16578 7
    endloop
  endfacet
  facet normal -0 0 1
    outer loop
      vertex 19.5 10 7
      vertex 28.2092 6.41435 7
      vertex 24.8815 20.4088 7
    endloop
  endfacet
  facet normal 0 0 1
    outer loop
      vertex 28.75 6.5 7
      vertex 24.8815 20.4088 7
      vertex 28.2092 6.41435 7
    endloop
  endfacet
  facet normal 0 0 1
    outer loop
      vertex 32.3815 2.59123 7
      vertex 30.1658 3.72138 7
      vertex 31.6448 1.57726 7
    endloop
  endfacet
  facet normal -0 0 1
    outer loop
      vertex 29.7786 3.33422 7
      vertex 31.6448 1.57726 7
      vertex 30.1658 3.72138 7
    endloop
  endfacet
  facet normal 0 0 1
    outer loop
      vertex 31.6448 1.57726 7
      vertex 29.7786 3.33422 7
      vertex 30.6791 0.778361 7
    endloop
  endfacet
  facet normal -0 0 1
    outer loop
      vertex 29.2908 3.08565 7
      vertex 30.6791 0.778361 7
      vertex 29.7786 3.33422 7
    endloop
  endfacet
  facet normal 0 0 1
    outer loop
      vertex 30.6791 0.778361 7
      vertex 29.2908 3.08565 7
      vertex 29.5451 0.244718 7
    endloop
  endfacet
  facet normal -0 0 1
    outer loop
      vertex 28.75 3 7
      vertex 29.5451 0.244718 7
      vertex 29.2908 3.08565 7
    endloop
  endfacet
  facet normal 0 0 1
    outer loop
      vertex 28.75 3 7
      vertex 28.314 0.00986671 7
      vertex 29.5451 0.244718 7
    endloop
  endfacet
  facet normal 0 0 1
    outer loop
      vertex 28.2092 3.08565 7
      vertex 28.314 0.00986671 7
      vertex 28.75 3 7
    endloop
  endfacet
  facet normal 0 0 1
    outer loop
      vertex 27.7214 3.33422 7
      vertex 28.314 0.00986671 7
      vertex 28.2092 3.08565 7
    endloop
  endfacet
  facet normal 0 0 1
    outer loop
      vertex 27.3342 3.72138 7
      vertex 28.314 0.00986671 7
      vertex 27.7214 3.33422 7
    endloop
  endfacet
  facet normal 0 0 1
    outer loop
      vertex 18 0.00986671 7
      vertex 27.3342 3.72138 7
      vertex 27.0857 4.20922 7
    endloop
  endfacet
  facet normal 0 0 1
    outer loop
      vertex 20.814 22.9901 7
      vertex 24.8815 20.4088 7
      vertex 24.1448 21.4227 7
    endloop
  endfacet
  facet normal 0 0 1
    outer loop
      vertex 27.3342 5.77862 7
      vertex 19.5 7 7
      vertex 27.0857 5.29078 7
    endloop
  endfacet
  facet normal 0 0 1
    outer loop
      vertex 20.814 22.9901 7
      vertex 24.1448 21.4227 7
      vertex 23.1791 22.2216 7
    endloop
  endfacet
  facet normal 0 0 1
    outer loop
      vertex 20.814 22.9901 7
      vertex 23.1791 22.2216 7
      vertex 22.0451 22.7553 7
    endloop
  endfacet
  facet normal 0 0 1
    outer loop
      vertex 24.8815 20.4088 7
      vertex 20.814 22.9901 7
      vertex 19.5 10 7
    endloop
  endfacet
  facet normal 0 0 1
    outer loop
      vertex 27.0857 5.29078 7
      vertex 19.5 7 7
      vertex 27 4.75 7
    endloop
  endfacet
  facet normal 0 0 1
    outer loop
      vertex 27 4.75 7
      vertex 19.5 7 7
      vertex 27.0857 4.20922 7
    endloop
  endfacet
  facet normal 0 0 1
    outer loop
      vertex 18 0.00986671 7
      vertex 27.0857 4.20922 7
      vertex 19.5 7 7
    endloop
  endfacet
  facet normal 0 0 1
    outer loop
      vertex 18 0.00986671 7
      vertex 19.5 7 7
      vertex 18 7 7
    endloop
  endfacet
  facet normal 0 0 1
    outer loop
      vertex 27.3342 3.72138 7
      vertex 18 0.00986671 7
      vertex 28.314 0.00986671 7
    endloop
  endfacet
  facet normal -1 0 0
    outer loop
      vertex 0.0394268 4.37333 0
      vertex 0.0394268 5.62667 7
      vertex 0.0394268 5.62667 0
    endloop
  endfacet
  facet normal -1 -0 0
    outer loop
      vertex 0.0394268 5.62667 7
      vertex 0.0394268 4.37333 0
      vertex 0.0394268 4.37333 7
    endloop
  endfacet
  facet normal -0.968583 -0.24869 0
    outer loop
      vertex 0.351118 3.15938 0
      vertex 0.0394268 4.37333 7
      vertex 0.0394268 4.37333 0
    endloop
  endfacet
  facet normal -0.968583 -0.24869 0
    outer loop
      vertex 0.0394268 4.37333 7
      vertex 0.351118 3.15938 0
      vertex 0.351118 3.15938 7
    endloop
  endfacet
  facet normal 0.929776 -0.368126 0
    outer loop
      vertex 32.3815 2.59123 7
      vertex 32.8429 3.75655 0
      vertex 32.8429 3.75655 7
    endloop
  endfacet
  facet normal 0.929776 -0.368126 0
    outer loop
      vertex 32.8429 3.75655 0
      vertex 32.3815 2.59123 7
      vertex 32.3815 2.59123 0
    endloop
  endfacet
  facet normal 0.187381 -0.982287 0
    outer loop
      vertex 28.314 0.00986671 0
      vertex 29.5451 0.244718 7
      vertex 28.314 0.00986671 7
    endloop
  endfacet
  facet normal 0.187381 -0.982287 0
    outer loop
      vertex 29.5451 0.244718 7
      vertex 28.314 0.00986671 0
      vertex 29.5451 0.244718 0
    endloop
  endfacet
  facet normal -0.876307 0.481753 0
    outer loop
      vertex 0.351118 6.84062 0
      vertex 0.954915 7.93893 7
      vertex 0.954915 7.93893 0
    endloop
  endfacet
  facet normal -0.876307 0.481753 0
    outer loop
      vertex 0.954915 7.93893 7
      vertex 0.351118 6.84062 0
      vertex 0.351118 6.84062 7
    endloop
  endfacet
  facet normal -0.968583 0.24869 0
    outer loop
      vertex 0.0394268 5.62667 0
      vertex 0.351118 6.84062 7
      vertex 0.351118 6.84062 0
    endloop
  endfacet
  facet normal -0.968583 0.24869 0
    outer loop
      vertex 0.351118 6.84062 7
      vertex 0.0394268 5.62667 0
      vertex 0.0394268 5.62667 7
    endloop
  endfacet
  facet normal -0.876307 -0.481753 0
    outer loop
      vertex 0.954915 2.06107 0
      vertex 0.351118 3.15938 7
      vertex 0.351118 3.15938 0
    endloop
  endfacet
  facet normal -0.876307 -0.481753 0
    outer loop
      vertex 0.351118 3.15938 7
      vertex 0.954915 2.06107 0
      vertex 0.954915 2.06107 7
    endloop
  endfacet
  facet normal -0.309017 -0.951056 0
    outer loop
      vertex 2.8711 0.475865 0
      vertex 4.06309 0.0885639 7
      vertex 2.8711 0.475865 7
    endloop
  endfacet
  facet normal -0.309017 -0.951056 -0
    outer loop
      vertex 4.06309 0.0885639 7
      vertex 2.8711 0.475865 0
      vertex 4.06309 0.0885639 0
    endloop
  endfacet
  facet normal -0.728968 -0.684547 0
    outer loop
      vertex 1.81288 1.14743 0
      vertex 0.954915 2.06107 7
      vertex 0.954915 2.06107 0
    endloop
  endfacet
  facet normal -0.728968 -0.684547 0
    outer loop
      vertex 0.954915 2.06107 7
      vertex 1.81288 1.14743 0
      vertex 1.81288 1.14743 7
    endloop
  endfacet
  facet normal -0.728968 0.684548 0
    outer loop
      vertex 8.45492 20.9389 0
      vertex 9.31288 21.8526 7
      vertex 9.31288 21.8526 0
    endloop
  endfacet
  facet normal -0.728968 0.684548 0
    outer loop
      vertex 9.31288 21.8526 7
      vertex 8.45492 20.9389 0
      vertex 8.45492 20.9389 7
    endloop
  endfacet
  facet normal 0.809018 0.587784 0
    outer loop
      vertex 24.8815 20.4088 7
      vertex 24.1448 21.4227 0
      vertex 24.1448 21.4227 7
    endloop
  endfacet
  facet normal 0.809018 0.587784 0
    outer loop
      vertex 24.1448 21.4227 0
      vertex 24.8815 20.4088 7
      vertex 24.8815 20.4088 0
    endloop
  endfacet
  facet normal 0.992115 -0.125334 0
    outer loop
      vertex 32.8429 3.75655 7
      vertex 33 5 0
      vertex 33 5 7
    endloop
  endfacet
  facet normal 0.992115 -0.125334 0
    outer loop
      vertex 33 5 0
      vertex 32.8429 3.75655 7
      vertex 32.8429 3.75655 0
    endloop
  endfacet
  facet normal 0.809018 -0.587783 0
    outer loop
      vertex 31.6448 1.57726 7
      vertex 32.3815 2.59123 0
      vertex 32.3815 2.59123 7
    endloop
  endfacet
  facet normal 0.809018 -0.587783 0
    outer loop
      vertex 32.3815 2.59123 0
      vertex 31.6448 1.57726 7
      vertex 31.6448 1.57726 0
    endloop
  endfacet
  facet normal -0.0627904 -0.998027 0
    outer loop
      vertex 4.06309 0.0885639 0
      vertex 5.31395 0.00986671 7
      vertex 4.06309 0.0885639 7
    endloop
  endfacet
  facet normal -0.0627904 -0.998027 -0
    outer loop
      vertex 5.31395 0.00986671 7
      vertex 4.06309 0.0885639 0
      vertex 5.31395 0.00986671 0
    endloop
  endfacet
  facet normal -0.535827 -0.844328 0
    outer loop
      vertex 1.81288 1.14743 0
      vertex 2.8711 0.475865 7
      vertex 1.81288 1.14743 7
    endloop
  endfacet
  facet normal -0.535827 -0.844328 -0
    outer loop
      vertex 2.8711 0.475865 7
      vertex 1.81288 1.14743 0
      vertex 2.8711 0.475865 0
    endloop
  endfacet
  facet normal 0 0 -1
    outer loop
      vertex 15 0.00986671 0
      vertex 13.5 7 0
      vertex 15 7 0
    endloop
  endfacet
  facet normal 0 0 -1
    outer loop
      vertex 6.16578 5.77862 0
      vertex 13.5 10 0
      vertex 13.5 7 0
    endloop
  endfacet
  facet normal 0 0 -1
    outer loop
      vertex 13.5 10 0
      vertex 8.45492 20.9389 0
      vertex 12.814 22.9901 0
    endloop
  endfacet
  facet normal 0 0 -1
    outer loop
      vertex 12.814 22.9901 0
      vertex 8.45492 20.9389 0
      vertex 11.5631 22.9114 0
    endloop
  endfacet
  facet normal 0 0 -1
    outer loop
      vertex 11.5631 22.9114 0
      vertex 8.45492 20.9389 0
      vertex 10.3711 22.5241 0
    endloop
  endfacet
  facet normal 0 0 -1
    outer loop
      vertex 6.41435 4.20922 0
      vertex 13.5 7 0
      vertex 15 0.00986671 0
    endloop
  endfacet
  facet normal 0 0 -1
    outer loop
      vertex 10.3711 22.5241 0
      vertex 8.45492 20.9389 0
      vertex 9.31288 21.8526 0
    endloop
  endfacet
  facet normal 0 0 -1
    outer loop
      vertex 13.5 7 0
      vertex 6.5 4.75 0
      vertex 6.41435 5.29078 0
    endloop
  endfacet
  facet normal 0 0 -1
    outer loop
      vertex 13.5 7 0
      vertex 6.41435 4.20922 0
      vertex 6.5 4.75 0
    endloop
  endfacet
  facet normal 0 0 -1
    outer loop
      vertex 15 0.00986671 0
      vertex 6.16578 3.72138 0
      vertex 6.41435 4.20922 0
    endloop
  endfacet
  facet normal 0 0 -1
    outer loop
      vertex 5.31395 0.00986671 0
      vertex 6.16578 3.72138 0
      vertex 15 0.00986671 0
    endloop
  endfacet
  facet normal 0 0 -1
    outer loop
      vertex 6.16578 3.72138 0
      vertex 5.31395 0.00986671 0
      vertex 5.77862 3.33422 0
    endloop
  endfacet
  facet normal 0 0 -1
    outer loop
      vertex 5.31395 0.00986671 0
      vertex 5.29078 3.08565 0
      vertex 5.77862 3.33422 0
    endloop
  endfacet
  facet normal 0 0 -1
    outer loop
      vertex 5.31395 0.00986671 0
      vertex 4.75 3 0
      vertex 5.29078 3.08565 0
    endloop
  endfacet
  facet normal 0 0 -1
    outer loop
      vertex 4.06309 0.0885639 0
      vertex 4.75 3 0
      vertex 5.31395 0.00986671 0
    endloop
  endfacet
  facet normal -0 0 -1
    outer loop
      vertex 4.75 3 0
      vertex 4.06309 0.0885639 0
      vertex 4.20922 3.08565 0
    endloop
  endfacet
  facet normal 0 0 -1
    outer loop
      vertex 2.8711 0.475865 0
      vertex 4.20922 3.08565 0
      vertex 4.06309 0.0885639 0
    endloop
  endfacet
  facet normal -0 0 -1
    outer loop
      vertex 4.20922 3.08565 0
      vertex 2.8711 0.475865 0
      vertex 3.72138 3.33422 0
    endloop
  endfacet
  facet normal 0 0 -1
    outer loop
      vertex 1.81288 1.14743 0
      vertex 3.72138 3.33422 0
      vertex 2.8711 0.475865 0
    endloop
  endfacet
  facet normal 0 0 -1
    outer loop
      vertex 0.954915 2.06107 0
      vertex 3.33422 3.72138 0
      vertex 1.81288 1.14743 0
    endloop
  endfacet
  facet normal -0 0 -1
    outer loop
      vertex 3.72138 3.33422 0
      vertex 1.81288 1.14743 0
      vertex 3.33422 3.72138 0
    endloop
  endfacet
  facet normal 0 0 -1
    outer loop
      vertex 32.8429 3.75655 0
      vertex 30.4143 4.20922 0
      vertex 30.5 4.75 0
    endloop
  endfacet
  facet normal 0 0 -1
    outer loop
      vertex 31.6448 1.57726 0
      vertex 30.1658 3.72138 0
      vertex 30.4143 4.20922 0
    endloop
  endfacet
  facet normal 0 0 -1
    outer loop
      vertex 31.6448 1.57726 0
      vertex 29.7786 3.33422 0
      vertex 30.1658 3.72138 0
    endloop
  endfacet
  facet normal 0 0 -1
    outer loop
      vertex 29.2908 3.08565 0
      vertex 30.6791 0.778361 0
      vertex 29.5451 0.244718 0
    endloop
  endfacet
  facet normal 0 0 -1
    outer loop
      vertex 30.6791 0.778361 0
      vertex 29.2908 3.08565 0
      vertex 29.7786 3.33422 0
    endloop
  endfacet
  facet normal 0 0 -1
    outer loop
      vertex 29.5451 0.244718 0
      vertex 28.75 3 0
      vertex 29.2908 3.08565 0
    endloop
  endfacet
  facet normal 0 0 -1
    outer loop
      vertex 28.314 0.00986671 0
      vertex 28.75 3 0
      vertex 29.5451 0.244718 0
    endloop
  endfacet
  facet normal 0 0 -1
    outer loop
      vertex 28.314 0.00986671 0
      vertex 28.2092 3.08565 0
      vertex 28.75 3 0
    endloop
  endfacet
  facet normal 0 0 -1
    outer loop
      vertex 28.314 0.00986671 0
      vertex 27.7214 3.33422 0
      vertex 28.2092 3.08565 0
    endloop
  endfacet
  facet normal 0 0 -1
    outer loop
      vertex 28.314 0.00986671 0
      vertex 27.3342 3.72138 0
      vertex 27.7214 3.33422 0
    endloop
  endfacet
  facet normal 0 0 -1
    outer loop
      vertex 18 0.00986671 0
      vertex 27.3342 3.72138 0
      vertex 28.314 0.00986671 0
    endloop
  endfacet
  facet normal 0 0 -1
    outer loop
      vertex 27.0857 5.29078 0
      vertex 24.1448 21.4227 0
      vertex 24.8815 20.4088 0
    endloop
  endfacet
  facet normal 0 0 -1
    outer loop
      vertex 19.5 7 0
      vertex 27 4.75 0
      vertex 27.0857 4.20922 0
    endloop
  endfacet
  facet normal 0 0 -1
    outer loop
      vertex 27.0857 5.29078 0
      vertex 19.5 10 0
      vertex 24.1448 21.4227 0
    endloop
  endfacet
  facet normal 0 -0 -1
    outer loop
      vertex 20.814 22.9901 0
      vertex 24.1448 21.4227 0
      vertex 19.5 10 0
    endloop
  endfacet
  facet normal 0 0 -1
    outer loop
      vertex 24.1448 21.4227 0
      vertex 20.814 22.9901 0
      vertex 23.1791 22.2216 0
    endloop
  endfacet
  facet normal -0 0 -1
    outer loop
      vertex 27.3342 3.72138 0
      vertex 18 0.00986671 0
      vertex 27.0857 4.20922 0
    endloop
  endfacet
  facet normal 0 0 -1
    outer loop
      vertex 27.0857 5.29078 0
      vertex 19.5 7 0
      vertex 19.5 10 0
    endloop
  endfacet
  facet normal -0 0 -1
    outer loop
      vertex 27.0857 4.20922 0
      vertex 18 0.00986671 0
      vertex 19.5 7 0
    endloop
  endfacet
  facet normal -0 0 -1
    outer loop
      vertex 19.5 7 0
      vertex 18 0.00986671 0
      vertex 18 7 0
    endloop
  endfacet
  facet normal 0 0 -1
    outer loop
      vertex 30.5 4.75 0
      vertex 33 5 0
      vertex 32.8429 3.75655 0
    endloop
  endfacet
  facet normal 0 0 -1
    outer loop
      vertex 30.4143 4.20922 0
      vertex 32.8429 3.75655 0
      vertex 32.3815 2.59123 0
    endloop
  endfacet
  facet normal 0 0 -1
    outer loop
      vertex 30.4143 5.29078 0
      vertex 33 5 0
      vertex 30.5 4.75 0
    endloop
  endfacet
  facet normal 0 0 -1
    outer loop
      vertex 30.4143 4.20922 0
      vertex 32.3815 2.59123 0
      vertex 31.6448 1.57726 0
    endloop
  endfacet
  facet normal 0 0 -1
    outer loop
      vertex 29.7786 3.33422 0
      vertex 31.6448 1.57726 0
      vertex 30.6791 0.778361 0
    endloop
  endfacet
  facet normal 0 0 -1
    outer loop
      vertex 33 5 0
      vertex 30.4143 5.29078 0
      vertex 32.8429 6.24345 0
    endloop
  endfacet
  facet normal 0 0 -1
    outer loop
      vertex 30.1658 5.77862 0
      vertex 32.8429 6.24345 0
      vertex 30.4143 5.29078 0
    endloop
  endfacet
  facet normal -0 0 -1
    outer loop
      vertex 32.8429 6.24345 0
      vertex 30.1658 5.77862 0
      vertex 32.3815 7.40877 0
    endloop
  endfacet
  facet normal 0 0 -1
    outer loop
      vertex 29.7786 6.16578 0
      vertex 32.3815 7.40877 0
      vertex 30.1658 5.77862 0
    endloop
  endfacet
  facet normal 0 0 -1
    outer loop
      vertex 29.2908 6.41435 0
      vertex 32.3815 7.40877 0
      vertex 29.7786 6.16578 0
    endloop
  endfacet
  facet normal 0 0 -1
    outer loop
      vertex 28.75 6.5 0
      vertex 32.3815 7.40877 0
      vertex 29.2908 6.41435 0
    endloop
  endfacet
  facet normal 0 0 -1
    outer loop
      vertex 24.8815 20.4088 0
      vertex 28.75 6.5 0
      vertex 28.2092 6.41435 0
    endloop
  endfacet
  facet normal 0 0 -1
    outer loop
      vertex 28.75 6.5 0
      vertex 24.8815 20.4088 0
      vertex 32.3815 7.40877 0
    endloop
  endfacet
  facet normal 0 0 -1
    outer loop
      vertex 27.7214 6.16578 0
      vertex 24.8815 20.4088 0
      vertex 28.2092 6.41435 0
    endloop
  endfacet
  facet normal 0 0 -1
    outer loop
      vertex 27.3342 5.77862 0
      vertex 24.8815 20.4088 0
      vertex 27.7214 6.16578 0
    endloop
  endfacet
  facet normal 0 0 -1
    outer loop
      vertex 27.0857 5.29078 0
      vertex 24.8815 20.4088 0
      vertex 27.3342 5.77862 0
    endloop
  endfacet
  facet normal 0 0 -1
    outer loop
      vertex 19.5 7 0
      vertex 27.0857 5.29078 0
      vertex 27 4.75 0
    endloop
  endfacet
  facet normal 0 0 -1
    outer loop
      vertex 23.1791 22.2216 0
      vertex 20.814 22.9901 0
      vertex 22.0451 22.7553 0
    endloop
  endfacet
  facet normal 0 0 -1
    outer loop
      vertex 12.814 22.9901 0
      vertex 19.5 10 0
      vertex 13.5 10 0
    endloop
  endfacet
  facet normal 0 0 -1
    outer loop
      vertex 19.5 10 0
      vertex 12.814 22.9901 0
      vertex 20.814 22.9901 0
    endloop
  endfacet
  facet normal 0 0 -1
    outer loop
      vertex 13.5 7 0
      vertex 6.41435 5.29078 0
      vertex 6.16578 5.77862 0
    endloop
  endfacet
  facet normal 0 0 -1
    outer loop
      vertex 13.5 10 0
      vertex 6.16578 5.77862 0
      vertex 5.77862 6.16578 0
    endloop
  endfacet
  facet normal 0 0 -1
    outer loop
      vertex 13.5 10 0
      vertex 5.77862 6.16578 0
      vertex 5.29078 6.41435 0
    endloop
  endfacet
  facet normal -0 0 -1
    outer loop
      vertex 13.5 10 0
      vertex 5.29078 6.41435 0
      vertex 8.45492 20.9389 0
    endloop
  endfacet
  facet normal 0 0 -1
    outer loop
      vertex 4.75 6.5 0
      vertex 8.45492 20.9389 0
      vertex 5.29078 6.41435 0
    endloop
  endfacet
  facet normal 0 0 -1
    outer loop
      vertex 0.954915 7.93893 0
      vertex 4.75 6.5 0
      vertex 4.20922 6.41435 0
    endloop
  endfacet
  facet normal 0 0 -1
    outer loop
      vertex 0.954915 7.93893 0
      vertex 4.20922 6.41435 0
      vertex 3.72138 6.16578 0
    endloop
  endfacet
  facet normal 0 0 -1
    outer loop
      vertex 0.954915 7.93893 0
      vertex 3.72138 6.16578 0
      vertex 3.33422 5.77862 0
    endloop
  endfacet
  facet normal 0 0 -1
    outer loop
      vertex 0.351118 6.84062 0
      vertex 3.33422 5.77862 0
      vertex 3.08565 5.29078 0
    endloop
  endfacet
  facet normal -0 0 -1
    outer loop
      vertex 3.33422 3.72138 0
      vertex 0.954915 2.06107 0
      vertex 3.08565 4.20922 0
    endloop
  endfacet
  facet normal 0 0 -1
    outer loop
      vertex 0.351118 3.15938 0
      vertex 3.08565 4.20922 0
      vertex 0.954915 2.06107 0
    endloop
  endfacet
  facet normal 0 0 -1
    outer loop
      vertex 0.0394268 4.37333 0
      vertex 3.08565 4.20922 0
      vertex 0.351118 3.15938 0
    endloop
  endfacet
  facet normal 0 0 -1
    outer loop
      vertex 3.08565 4.20922 0
      vertex 0.0394268 4.37333 0
      vertex 3 4.75 0
    endloop
  endfacet
  facet normal 0 0 -1
    outer loop
      vertex 4.75 6.5 0
      vertex 0.954915 7.93893 0
      vertex 8.45492 20.9389 0
    endloop
  endfacet
  facet normal 0 0 -1
    outer loop
      vertex 0.0394268 5.62667 0
      vertex 3 4.75 0
      vertex 0.0394268 4.37333 0
    endloop
  endfacet
  facet normal 0 0 -1
    outer loop
      vertex 3.33422 5.77862 0
      vertex 0.351118 6.84062 0
      vertex 0.954915 7.93893 0
    endloop
  endfacet
  facet normal 0 0 -1
    outer loop
      vertex 3 4.75 0
      vertex 0.0394268 5.62667 0
      vertex 3.08565 5.29078 0
    endloop
  endfacet
  facet normal 0 0 -1
    outer loop
      vertex 3.08565 5.29078 0
      vertex 0.0394268 5.62667 0
      vertex 0.351118 6.84062 0
    endloop
  endfacet
  facet normal -0.535827 0.844328 0
    outer loop
      vertex 10.3711 22.5241 0
      vertex 9.31288 21.8526 7
      vertex 10.3711 22.5241 7
    endloop
  endfacet
  facet normal -0.535827 0.844328 0
    outer loop
      vertex 9.31288 21.8526 7
      vertex 10.3711 22.5241 0
      vertex 9.31288 21.8526 0
    endloop
  endfacet
  facet normal -0.866186 0.499722 0
    outer loop
      vertex 0.954915 7.93893 0
      vertex 8.45492 20.9389 7
      vertex 8.45492 20.9389 0
    endloop
  endfacet
  facet normal -0.866186 0.499722 0
    outer loop
      vertex 8.45492 20.9389 7
      vertex 0.954915 7.93893 0
      vertex 0.954915 7.93893 7
    endloop
  endfacet
  facet normal 0.929776 0.368126 0
    outer loop
      vertex 32.8429 6.24345 7
      vertex 32.3815 7.40877 0
      vertex 32.3815 7.40877 7
    endloop
  endfacet
  facet normal 0.929776 0.368126 0
    outer loop
      vertex 32.3815 7.40877 0
      vertex 32.8429 6.24345 7
      vertex 32.8429 6.24345 0
    endloop
  endfacet
  facet normal 0.992115 0.125334 0
    outer loop
      vertex 33 5 7
      vertex 32.8429 6.24345 0
      vertex 32.8429 6.24345 7
    endloop
  endfacet
  facet normal 0.992115 0.125334 0
    outer loop
      vertex 32.8429 6.24345 0
      vertex 33 5 7
      vertex 33 5 0
    endloop
  endfacet
  facet normal 0.637423 -0.770514 0
    outer loop
      vertex 30.6791 0.778361 0
      vertex 31.6448 1.57726 7
      vertex 30.6791 0.778361 7
    endloop
  endfacet
  facet normal 0.637423 -0.770514 0
    outer loop
      vertex 31.6448 1.57726 7
      vertex 30.6791 0.778361 0
      vertex 31.6448 1.57726 0
    endloop
  endfacet
  facet normal 0.42578 -0.904827 0
    outer loop
      vertex 29.5451 0.244718 0
      vertex 30.6791 0.778361 7
      vertex 29.5451 0.244718 7
    endloop
  endfacet
  facet normal 0.42578 -0.904827 0
    outer loop
      vertex 30.6791 0.778361 7
      vertex 29.5451 0.244718 0
      vertex 30.6791 0.778361 0
    endloop
  endfacet
  facet normal 0.18738 0.982287 -0
    outer loop
      vertex 22.0451 22.7553 0
      vertex 20.814 22.9901 7
      vertex 22.0451 22.7553 7
    endloop
  endfacet
  facet normal 0.18738 0.982287 0
    outer loop
      vertex 20.814 22.9901 7
      vertex 22.0451 22.7553 0
      vertex 20.814 22.9901 0
    endloop
  endfacet
  facet normal -0.0627904 0.998027 0
    outer loop
      vertex 12.814 22.9901 0
      vertex 11.5631 22.9114 7
      vertex 12.814 22.9901 7
    endloop
  endfacet
  facet normal -0.0627904 0.998027 0
    outer loop
      vertex 11.5631 22.9114 7
      vertex 12.814 22.9901 0
      vertex 11.5631 22.9114 0
    endloop
  endfacet
  facet normal 0 1 -0
    outer loop
      vertex 20.814 22.9901 0
      vertex 12.814 22.9901 7
      vertex 20.814 22.9901 7
    endloop
  endfacet
  facet normal 0 1 0
    outer loop
      vertex 12.814 22.9901 7
      vertex 20.814 22.9901 0
      vertex 12.814 22.9901 0
    endloop
  endfacet
  facet normal 0.637423 0.770514 -0
    outer loop
      vertex 24.1448 21.4227 0
      vertex 23.1791 22.2216 7
      vertex 24.1448 21.4227 7
    endloop
  endfacet
  facet normal 0.637423 0.770514 0
    outer loop
      vertex 23.1791 22.2216 7
      vertex 24.1448 21.4227 0
      vertex 23.1791 22.2216 0
    endloop
  endfacet
  facet normal 0.866186 0.499722 0
    outer loop
      vertex 32.3815 7.40877 7
      vertex 24.8815 20.4088 0
      vertex 24.8815 20.4088 7
    endloop
  endfacet
  facet normal 0.866186 0.499722 0
    outer loop
      vertex 24.8815 20.4088 0
      vertex 32.3815 7.40877 7
      vertex 32.3815 7.40877 0
    endloop
  endfacet
  facet normal 0.425781 0.904826 -0
    outer loop
      vertex 23.1791 22.2216 0
      vertex 22.0451 22.7553 7
      vertex 23.1791 22.2216 7
    endloop
  endfacet
  facet normal 0.425781 0.904826 0
    outer loop
      vertex 22.0451 22.7553 7
      vertex 23.1791 22.2216 0
      vertex 22.0451 22.7553 0
    endloop
  endfacet
  facet normal -0.987688 -0.156435 0
    outer loop
      vertex 30.5 4.75 0
      vertex 30.4143 5.29078 7
      vertex 30.4143 5.29078 0
    endloop
  endfacet
  facet normal -0.987688 -0.156435 0
    outer loop
      vertex 30.4143 5.29078 7
      vertex 30.5 4.75 0
      vertex 30.5 4.75 7
    endloop
  endfacet
  facet normal -0.156435 -0.987688 0
    outer loop
      vertex 28.75 6.5 0
      vertex 29.2908 6.41435 7
      vertex 28.75 6.5 7
    endloop
  endfacet
  facet normal -0.156435 -0.987688 -0
    outer loop
      vertex 29.2908 6.41435 7
      vertex 28.75 6.5 0
      vertex 29.2908 6.41435 0
    endloop
  endfacet
  facet normal 0.987688 0.156435 0
    outer loop
      vertex 27.0857 4.20922 7
      vertex 27 4.75 0
      vertex 27 4.75 7
    endloop
  endfacet
  facet normal 0.987688 0.156435 0
    outer loop
      vertex 27 4.75 0
      vertex 27.0857 4.20922 7
      vertex 27.0857 4.20922 0
    endloop
  endfacet
  facet normal -0.453991 0.891006 0
    outer loop
      vertex 29.7786 3.33422 0
      vertex 29.2908 3.08565 7
      vertex 29.7786 3.33422 7
    endloop
  endfacet
  facet normal -0.453991 0.891006 0
    outer loop
      vertex 29.2908 3.08565 7
      vertex 29.7786 3.33422 0
      vertex 29.2908 3.08565 0
    endloop
  endfacet
  facet normal -0.156433 0.987688 0
    outer loop
      vertex 29.2908 3.08565 0
      vertex 28.75 3 7
      vertex 29.2908 3.08565 7
    endloop
  endfacet
  facet normal -0.156433 0.987688 0
    outer loop
      vertex 28.75 3 7
      vertex 29.2908 3.08565 0
      vertex 28.75 3 0
    endloop
  endfacet
  facet normal -0.891006 -0.453991 0
    outer loop
      vertex 30.4143 5.29078 0
      vertex 30.1658 5.77862 7
      vertex 30.1658 5.77862 0
    endloop
  endfacet
  facet normal -0.891006 -0.453991 0
    outer loop
      vertex 30.1658 5.77862 7
      vertex 30.4143 5.29078 0
      vertex 30.4143 5.29078 7
    endloop
  endfacet
  facet normal 0.156435 -0.987688 0
    outer loop
      vertex 28.2092 6.41435 0
      vertex 28.75 6.5 7
      vertex 28.2092 6.41435 7
    endloop
  endfacet
  facet normal 0.156435 -0.987688 0
    outer loop
      vertex 28.75 6.5 7
      vertex 28.2092 6.41435 0
      vertex 28.75 6.5 0
    endloop
  endfacet
  facet normal 0.45399 -0.891007 0
    outer loop
      vertex 27.7214 6.16578 0
      vertex 28.2092 6.41435 7
      vertex 27.7214 6.16578 7
    endloop
  endfacet
  facet normal 0.45399 -0.891007 0
    outer loop
      vertex 28.2092 6.41435 7
      vertex 27.7214 6.16578 0
      vertex 28.2092 6.41435 0
    endloop
  endfacet
  facet normal 0.891006 0.453991 0
    outer loop
      vertex 27.3342 3.72138 7
      vertex 27.0857 4.20922 0
      vertex 27.0857 4.20922 7
    endloop
  endfacet
  facet normal 0.891006 0.453991 0
    outer loop
      vertex 27.0857 4.20922 0
      vertex 27.3342 3.72138 7
      vertex 27.3342 3.72138 0
    endloop
  endfacet
  facet normal 0.156433 0.987688 -0
    outer loop
      vertex 28.75 3 0
      vertex 28.2092 3.08565 7
      vertex 28.75 3 7
    endloop
  endfacet
  facet normal 0.156433 0.987688 0
    outer loop
      vertex 28.2092 3.08565 7
      vertex 28.75 3 0
      vertex 28.2092 3.08565 0
    endloop
  endfacet
  facet normal -0.707107 -0.707107 0
    outer loop
      vertex 30.1658 5.77862 0
      vertex 29.7786 6.16578 7
      vertex 29.7786 6.16578 0
    endloop
  endfacet
  facet normal -0.707107 -0.707107 0
    outer loop
      vertex 29.7786 6.16578 7
      vertex 30.1658 5.77862 0
      vertex 30.1658 5.77862 7
    endloop
  endfacet
  facet normal -0.453991 -0.891006 0
    outer loop
      vertex 29.2908 6.41435 0
      vertex 29.7786 6.16578 7
      vertex 29.2908 6.41435 7
    endloop
  endfacet
  facet normal -0.453991 -0.891006 -0
    outer loop
      vertex 29.7786 6.16578 7
      vertex 29.2908 6.41435 0
      vertex 29.7786 6.16578 0
    endloop
  endfacet
  facet normal 0.987688 -0.156435 0
    outer loop
      vertex 27 4.75 7
      vertex 27.0857 5.29078 0
      vertex 27.0857 5.29078 7
    endloop
  endfacet
  facet normal 0.987688 -0.156435 0
    outer loop
      vertex 27.0857 5.29078 0
      vertex 27 4.75 7
      vertex 27 4.75 0
    endloop
  endfacet
  facet normal 0.707109 -0.707105 0
    outer loop
      vertex 27.3342 5.77862 7
      vertex 27.7214 6.16578 0
      vertex 27.7214 6.16578 7
    endloop
  endfacet
  facet normal 0.707109 -0.707105 0
    outer loop
      vertex 27.7214 6.16578 0
      vertex 27.3342 5.77862 7
      vertex 27.3342 5.77862 0
    endloop
  endfacet
  facet normal 0.891006 -0.453991 0
    outer loop
      vertex 27.0857 5.29078 7
      vertex 27.3342 5.77862 0
      vertex 27.3342 5.77862 7
    endloop
  endfacet
  facet normal 0.891006 -0.453991 0
    outer loop
      vertex 27.3342 5.77862 0
      vertex 27.0857 5.29078 7
      vertex 27.0857 5.29078 0
    endloop
  endfacet
  facet normal -0.707107 0.707107 0
    outer loop
      vertex 29.7786 3.33422 0
      vertex 30.1658 3.72138 7
      vertex 30.1658 3.72138 0
    endloop
  endfacet
  facet normal -0.707107 0.707107 0
    outer loop
      vertex 30.1658 3.72138 7
      vertex 29.7786 3.33422 0
      vertex 29.7786 3.33422 7
    endloop
  endfacet
  facet normal -0.987688 0.156435 0
    outer loop
      vertex 30.4143 4.20922 0
      vertex 30.5 4.75 7
      vertex 30.5 4.75 0
    endloop
  endfacet
  facet normal -0.987688 0.156435 0
    outer loop
      vertex 30.5 4.75 7
      vertex 30.4143 4.20922 0
      vertex 30.4143 4.20922 7
    endloop
  endfacet
  facet normal 0.707109 0.707105 0
    outer loop
      vertex 27.7214 3.33422 7
      vertex 27.3342 3.72138 0
      vertex 27.3342 3.72138 7
    endloop
  endfacet
  facet normal 0.707109 0.707105 0
    outer loop
      vertex 27.3342 3.72138 0
      vertex 27.7214 3.33422 7
      vertex 27.7214 3.33422 0
    endloop
  endfacet
  facet normal 0.45399 0.891007 -0
    outer loop
      vertex 28.2092 3.08565 0
      vertex 27.7214 3.33422 7
      vertex 28.2092 3.08565 7
    endloop
  endfacet
  facet normal 0.45399 0.891007 0
    outer loop
      vertex 27.7214 3.33422 7
      vertex 28.2092 3.08565 0
      vertex 27.7214 3.33422 0
    endloop
  endfacet
  facet normal -0.891006 0.453991 0
    outer loop
      vertex 30.1658 3.72138 0
      vertex 30.4143 4.20922 7
      vertex 30.4143 4.20922 0
    endloop
  endfacet
  facet normal -0.891006 0.453991 0
    outer loop
      vertex 30.4143 4.20922 7
      vertex 30.1658 3.72138 0
      vertex 30.1658 3.72138 7
    endloop
  endfacet
  facet normal -0.987688 -0.156435 0
    outer loop
      vertex 6.5 4.75 0
      vertex 6.41435 5.29078 7
      vertex 6.41435 5.29078 0
    endloop
  endfacet
  facet normal -0.987688 -0.156435 0
    outer loop
      vertex 6.41435 5.29078 7
      vertex 6.5 4.75 0
      vertex 6.5 4.75 7
    endloop
  endfacet
  facet normal -0.156435 -0.987688 0
    outer loop
      vertex 4.75 6.5 0
      vertex 5.29078 6.41435 7
      vertex 4.75 6.5 7
    endloop
  endfacet
  facet normal -0.156435 -0.987688 -0
    outer loop
      vertex 5.29078 6.41435 7
      vertex 4.75 6.5 0
      vertex 5.29078 6.41435 0
    endloop
  endfacet
  facet normal 0.987689 0.156433 0
    outer loop
      vertex 3.08565 4.20922 7
      vertex 3 4.75 0
      vertex 3 4.75 7
    endloop
  endfacet
  facet normal 0.987689 0.156433 0
    outer loop
      vertex 3 4.75 0
      vertex 3.08565 4.20922 7
      vertex 3.08565 4.20922 0
    endloop
  endfacet
  facet normal -0.453991 0.891006 0
    outer loop
      vertex 5.77862 3.33422 0
      vertex 5.29078 3.08565 7
      vertex 5.77862 3.33422 7
    endloop
  endfacet
  facet normal -0.453991 0.891006 0
    outer loop
      vertex 5.29078 3.08565 7
      vertex 5.77862 3.33422 0
      vertex 5.29078 3.08565 0
    endloop
  endfacet
  facet normal -0.156433 0.987688 0
    outer loop
      vertex 5.29078 3.08565 0
      vertex 4.75 3 7
      vertex 5.29078 3.08565 7
    endloop
  endfacet
  facet normal -0.156433 0.987688 0
    outer loop
      vertex 4.75 3 7
      vertex 5.29078 3.08565 0
      vertex 4.75 3 0
    endloop
  endfacet
  facet normal -0.891006 -0.453991 0
    outer loop
      vertex 6.41435 5.29078 0
      vertex 6.16578 5.77862 7
      vertex 6.16578 5.77862 0
    endloop
  endfacet
  facet normal -0.891006 -0.453991 0
    outer loop
      vertex 6.16578 5.77862 7
      vertex 6.41435 5.29078 0
      vertex 6.41435 5.29078 7
    endloop
  endfacet
  facet normal 0.156435 -0.987688 0
    outer loop
      vertex 4.20922 6.41435 0
      vertex 4.75 6.5 7
      vertex 4.20922 6.41435 7
    endloop
  endfacet
  facet normal 0.156435 -0.987688 0
    outer loop
      vertex 4.75 6.5 7
      vertex 4.20922 6.41435 0
      vertex 4.75 6.5 0
    endloop
  endfacet
  facet normal 0.453991 -0.891006 0
    outer loop
      vertex 3.72138 6.16578 0
      vertex 4.20922 6.41435 7
      vertex 3.72138 6.16578 7
    endloop
  endfacet
  facet normal 0.453991 -0.891006 0
    outer loop
      vertex 4.20922 6.41435 7
      vertex 3.72138 6.16578 0
      vertex 4.20922 6.41435 0
    endloop
  endfacet
  facet normal 0.891006 0.453991 0
    outer loop
      vertex 3.33422 3.72138 7
      vertex 3.08565 4.20922 0
      vertex 3.08565 4.20922 7
    endloop
  endfacet
  facet normal 0.891006 0.453991 0
    outer loop
      vertex 3.08565 4.20922 0
      vertex 3.33422 3.72138 7
      vertex 3.33422 3.72138 0
    endloop
  endfacet
  facet normal 0.156433 0.987689 -0
    outer loop
      vertex 4.75 3 0
      vertex 4.20922 3.08565 7
      vertex 4.75 3 7
    endloop
  endfacet
  facet normal 0.156433 0.987689 0
    outer loop
      vertex 4.20922 3.08565 7
      vertex 4.75 3 0
      vertex 4.20922 3.08565 0
    endloop
  endfacet
  facet normal -0.707107 -0.707107 0
    outer loop
      vertex 6.16578 5.77862 0
      vertex 5.77862 6.16578 7
      vertex 5.77862 6.16578 0
    endloop
  endfacet
  facet normal -0.707107 -0.707107 0
    outer loop
      vertex 5.77862 6.16578 7
      vertex 6.16578 5.77862 0
      vertex 6.16578 5.77862 7
    endloop
  endfacet
  facet normal -0.453991 -0.891006 0
    outer loop
      vertex 5.29078 6.41435 0
      vertex 5.77862 6.16578 7
      vertex 5.29078 6.41435 7
    endloop
  endfacet
  facet normal -0.453991 -0.891006 -0
    outer loop
      vertex 5.77862 6.16578 7
      vertex 5.29078 6.41435 0
      vertex 5.77862 6.16578 0
    endloop
  endfacet
  facet normal 0.987688 -0.156433 0
    outer loop
      vertex 3 4.75 7
      vertex 3.08565 5.29078 0
      vertex 3.08565 5.29078 7
    endloop
  endfacet
  facet normal 0.987688 -0.156433 0
    outer loop
      vertex 3.08565 5.29078 0
      vertex 3 4.75 7
      vertex 3 4.75 0
    endloop
  endfacet
  facet normal 0.707107 -0.707107 0
    outer loop
      vertex 3.33422 5.77862 7
      vertex 3.72138 6.16578 0
      vertex 3.72138 6.16578 7
    endloop
  endfacet
  facet normal 0.707107 -0.707107 0
    outer loop
      vertex 3.72138 6.16578 0
      vertex 3.33422 5.77862 7
      vertex 3.33422 5.77862 0
    endloop
  endfacet
  facet normal 0.891006 -0.453991 0
    outer loop
      vertex 3.08565 5.29078 7
      vertex 3.33422 5.77862 0
      vertex 3.33422 5.77862 7
    endloop
  endfacet
  facet normal 0.891006 -0.453991 0
    outer loop
      vertex 3.33422 5.77862 0
      vertex 3.08565 5.29078 7
      vertex 3.08565 5.29078 0
    endloop
  endfacet
  facet normal -0.707107 0.707107 0
    outer loop
      vertex 5.77862 3.33422 0
      vertex 6.16578 3.72138 7
      vertex 6.16578 3.72138 0
    endloop
  endfacet
  facet normal -0.707107 0.707107 0
    outer loop
      vertex 6.16578 3.72138 7
      vertex 5.77862 3.33422 0
      vertex 5.77862 3.33422 7
    endloop
  endfacet
  facet normal -0.987688 0.156435 0
    outer loop
      vertex 6.41435 4.20922 0
      vertex 6.5 4.75 7
      vertex 6.5 4.75 0
    endloop
  endfacet
  facet normal -0.987688 0.156435 0
    outer loop
      vertex 6.5 4.75 7
      vertex 6.41435 4.20922 0
      vertex 6.41435 4.20922 7
    endloop
  endfacet
  facet normal 0.707107 0.707107 0
    outer loop
      vertex 3.72138 3.33422 7
      vertex 3.33422 3.72138 0
      vertex 3.33422 3.72138 7
    endloop
  endfacet
  facet normal 0.707107 0.707107 0
    outer loop
      vertex 3.33422 3.72138 0
      vertex 3.72138 3.33422 7
      vertex 3.72138 3.33422 0
    endloop
  endfacet
  facet normal 0.453991 0.891006 -0
    outer loop
      vertex 4.20922 3.08565 0
      vertex 3.72138 3.33422 7
      vertex 4.20922 3.08565 7
    endloop
  endfacet
  facet normal 0.453991 0.891006 0
    outer loop
      vertex 3.72138 3.33422 7
      vertex 4.20922 3.08565 0
      vertex 3.72138 3.33422 0
    endloop
  endfacet
  facet normal -0.891006 0.453991 0
    outer loop
      vertex 6.16578 3.72138 0
      vertex 6.41435 4.20922 7
      vertex 6.41435 4.20922 0
    endloop
  endfacet
  facet normal -0.891006 0.453991 0
    outer loop
      vertex 6.41435 4.20922 7
      vertex 6.16578 3.72138 0
      vertex 6.16578 3.72138 7
    endloop
  endfacet
endsolid OpenSCAD_Model
