solid OpenSCAD_Model
  facet normal 1 -0 0
    outer loop
      vertex 28 1.5 6
      vertex 28 48.5 0
      vertex 28 48.5 6
    endloop
  endfacet
  facet normal 1 0 0
    outer loop
      vertex 28 48.5 0
      vertex 28 1.5 6
      vertex 28 1.5 0
    endloop
  endfacet
  facet normal 0 0 1
    outer loop
      vertex 26.5942 49.997 6
      vertex 28 48.5 6
      vertex 27.9529 48.873 6
    endloop
  endfacet
  facet normal 0 0 1
    outer loop
      vertex 28 48.5 6
      vertex 18.1165 21.0569 6
      vertex 28 1.5 6
    endloop
  endfacet
  facet normal 0 0 1
    outer loop
      vertex 26.5942 49.997 6
      vertex 27.9529 48.873 6
      vertex 27.8145 49.2226 6
    endloop
  endfacet
  facet normal -0 -0 1
    outer loop
      vertex 18.25 20 6
      vertex 28 1.5 6
      vertex 18.1165 21.0569 6
    endloop
  endfacet
  facet normal 0 0 1
    outer loop
      vertex 26.5942 49.997 6
      vertex 27.8145 49.2226 6
      vertex 27.5935 49.5268 6
    endloop
  endfacet
  facet normal -0 0 1
    outer loop
      vertex 18.1165 18.9431 6
      vertex 28 1.5 6
      vertex 18.25 20 6
    endloop
  endfacet
  facet normal 0 0 1
    outer loop
      vertex 26.5942 49.997 6
      vertex 27.5935 49.5268 6
      vertex 27.3037 49.7665 6
    endloop
  endfacet
  facet normal -0 0 1
    outer loop
      vertex 17.0981 17.0907 6
      vertex 28 1.5 6
      vertex 17.7243 17.9525 6
    endloop
  endfacet
  facet normal 0 0 1
    outer loop
      vertex 26.5942 49.997 6
      vertex 27.3037 49.7665 6
      vertex 26.9635 49.9266 6
    endloop
  endfacet
  facet normal -0 0 1
    outer loop
      vertex 16.2773 16.4116 6
      vertex 28 1.5 6
      vertex 17.0981 17.0907 6
    endloop
  endfacet
  facet normal 0 0 1
    outer loop
      vertex 14.2669 24.2416 6
      vertex 28 48.5 6
      vertex 26.5942 49.997 6
    endloop
  endfacet
  facet normal 0 -0 1
    outer loop
      vertex 26.5942 0.00296021 6
      vertex 28 1.5 6
      vertex 16.2773 16.4116 6
    endloop
  endfacet
  facet normal 0 0 1
    outer loop
      vertex 28 1.5 6
      vertex 26.5942 0.00296021 6
      vertex 27.9529 1.12697 6
    endloop
  endfacet
  facet normal -0 0 1
    outer loop
      vertex 17.7243 17.9525 6
      vertex 28 1.5 6
      vertex 18.1165 18.9431 6
    endloop
  endfacet
  facet normal 0 0 1
    outer loop
      vertex 28 48.5 6
      vertex 17.7243 22.0475 6
      vertex 18.1165 21.0569 6
    endloop
  endfacet
  facet normal 0 0 1
    outer loop
      vertex 28 48.5 6
      vertex 17.0981 22.9093 6
      vertex 17.7243 22.0475 6
    endloop
  endfacet
  facet normal 0 0 1
    outer loop
      vertex 28 48.5 6
      vertex 16.2773 23.5884 6
      vertex 17.0981 22.9093 6
    endloop
  endfacet
  facet normal 0 0 1
    outer loop
      vertex 28 48.5 6
      vertex 15.3133 24.042 6
      vertex 16.2773 23.5884 6
    endloop
  endfacet
  facet normal 0 0 1
    outer loop
      vertex 28 48.5 6
      vertex 14.2669 24.2416 6
      vertex 15.3133 24.042 6
    endloop
  endfacet
  facet normal -0 0 1
    outer loop
      vertex 1.59418 49.997 6
      vertex 14.2669 24.2416 6
      vertex 26.5942 49.997 6
    endloop
  endfacet
  facet normal 0 0 1
    outer loop
      vertex 14.2669 24.2416 6
      vertex 1.59418 49.997 6
      vertex 13.2036 24.1747 6
    endloop
  endfacet
  facet normal -0 0 1
    outer loop
      vertex 0.0118284 48.688 6
      vertex 13.2036 24.1747 6
      vertex 1.59418 49.997 6
    endloop
  endfacet
  facet normal 0 0 1
    outer loop
      vertex 13.2036 24.1747 6
      vertex 0.0118284 48.688 6
      vertex 12.1904 23.8455 6
    endloop
  endfacet
  facet normal 0 0 1
    outer loop
      vertex 10.0484 21.5645 6
      vertex 0.0118284 48.688 6
      vertex 9.78351 20.5327 6
    endloop
  endfacet
  facet normal 0 0 1
    outer loop
      vertex 10.5617 22.4981 6
      vertex 0.0118284 48.688 6
      vertex 10.0484 21.5645 6
    endloop
  endfacet
  facet normal 0 0 1
    outer loop
      vertex 11.2909 23.2747 6
      vertex 0.0118284 48.688 6
      vertex 10.5617 22.4981 6
    endloop
  endfacet
  facet normal 0 0 1
    outer loop
      vertex 12.1904 23.8455 6
      vertex 0.0118284 48.688 6
      vertex 11.2909 23.2747 6
    endloop
  endfacet
  facet normal 0 0 1
    outer loop
      vertex 27.8145 0.777369 6
      vertex 26.5942 0.00296021 6
      vertex 27.5935 0.47318 6
    endloop
  endfacet
  facet normal 0 0 1
    outer loop
      vertex 27.5935 0.47318 6
      vertex 26.5942 0.00296021 6
      vertex 27.3037 0.233509 6
    endloop
  endfacet
  facet normal 0 0 1
    outer loop
      vertex 27.3037 0.233509 6
      vertex 26.5942 0.00296021 6
      vertex 26.9635 0.0734158 6
    endloop
  endfacet
  facet normal 0 0 1
    outer loop
      vertex 27.9529 1.12697 6
      vertex 26.5942 0.00296021 6
      vertex 27.8145 0.777369 6
    endloop
  endfacet
  facet normal -0 0 1
    outer loop
      vertex 15.3133 15.958 6
      vertex 26.5942 0.00296021 6
      vertex 16.2773 16.4116 6
    endloop
  endfacet
  facet normal -0 0 1
    outer loop
      vertex 14.2669 15.7584 6
      vertex 26.5942 0.00296021 6
      vertex 15.3133 15.958 6
    endloop
  endfacet
  facet normal 0 0 1
    outer loop
      vertex 1.59418 0.00296021 6
      vertex 14.2669 15.7584 6
      vertex 13.2036 15.8253 6
    endloop
  endfacet
  facet normal 0 0 1
    outer loop
      vertex 1.59418 0.00296021 6
      vertex 13.2036 15.8253 6
      vertex 12.1904 16.1545 6
    endloop
  endfacet
  facet normal 0 0 1
    outer loop
      vertex 0.0118284 1.312 6
      vertex 12.1904 16.1545 6
      vertex 11.2909 16.7253 6
    endloop
  endfacet
  facet normal 0 0 1
    outer loop
      vertex 0.0118284 1.312 6
      vertex 11.2909 16.7253 6
      vertex 10.5617 17.5019 6
    endloop
  endfacet
  facet normal 0 0 1
    outer loop
      vertex 0.0118284 1.312 6
      vertex 9.78351 20.5327 6
      vertex 0.0118284 48.688 6
    endloop
  endfacet
  facet normal 0 0 1
    outer loop
      vertex 14.2669 15.7584 6
      vertex 1.59418 0.00296021 6
      vertex 26.5942 0.00296021 6
    endloop
  endfacet
  facet normal 0 0 1
    outer loop
      vertex 0.0118284 1.312 6
      vertex 10.5617 17.5019 6
      vertex 10.0484 18.4355 6
    endloop
  endfacet
  facet normal 0 0 1
    outer loop
      vertex 9.78351 20.5327 6
      vertex 0.0118284 1.312 6
      vertex 9.78351 19.4673 6
    endloop
  endfacet
  facet normal 0 0 1
    outer loop
      vertex 0.0118284 48.688 6
      vertex 1.59418 49.997 6
      vertex 1.21893 49.9734 6
    endloop
  endfacet
  facet normal 0 0 1
    outer loop
      vertex 9.78351 19.4673 6
      vertex 0.0118284 1.312 6
      vertex 10.0484 18.4355 6
    endloop
  endfacet
  facet normal 0 0 1
    outer loop
      vertex 0.0118284 48.688 6
      vertex 1.21893 49.9734 6
      vertex 0.861332 49.8572 6
    endloop
  endfacet
  facet normal 0 0 1
    outer loop
      vertex 12.1904 16.1545 6
      vertex 0.0118284 1.312 6
      vertex 1.59418 0.00296021 6
    endloop
  endfacet
  facet normal 0 0 1
    outer loop
      vertex 0.0118284 48.688 6
      vertex 0.861332 49.8572 6
      vertex 0.543864 49.6558 6
    endloop
  endfacet
  facet normal 0 0 1
    outer loop
      vertex 1.59418 0.00296021 6
      vertex 0.0118284 1.312 6
      vertex 1.21893 0.0265694 6
    endloop
  endfacet
  facet normal 0 0 1
    outer loop
      vertex 0.0118284 48.688 6
      vertex 0.543864 49.6558 6
      vertex 0.286475 49.3817 6
    endloop
  endfacet
  facet normal 0 0 1
    outer loop
      vertex 1.21893 0.0265694 6
      vertex 0.0118284 1.312 6
      vertex 0.861332 0.14276 6
    endloop
  endfacet
  facet normal 0 0 1
    outer loop
      vertex 0.0118284 48.688 6
      vertex 0.286475 49.3817 6
      vertex 0.105336 49.0522 6
    endloop
  endfacet
  facet normal 0 0 1
    outer loop
      vertex 0.861332 0.14276 6
      vertex 0.0118284 1.312 6
      vertex 0.543864 0.344231 6
    endloop
  endfacet
  facet normal 0 0 1
    outer loop
      vertex 0.543864 0.344231 6
      vertex 0.0118284 1.312 6
      vertex 0.286475 0.618322 6
    endloop
  endfacet
  facet normal 0 0 1
    outer loop
      vertex 0.286475 0.618322 6
      vertex 0.0118284 1.312 6
      vertex 0.105336 0.947814 6
    endloop
  endfacet
  facet normal 0 -1 0
    outer loop
      vertex 1.59418 0.00296021 0
      vertex 26.5942 0.00296021 6
      vertex 1.59418 0.00296021 6
    endloop
  endfacet
  facet normal 0 -1 -0
    outer loop
      vertex 26.5942 0.00296021 6
      vertex 1.59418 0.00296021 0
      vertex 26.5942 0.00296021 0
    endloop
  endfacet
  facet normal 0.809015 -0.587788 0
    outer loop
      vertex 27.5935 0.47318 6
      vertex 27.8145 0.777369 0
      vertex 27.8145 0.777369 6
    endloop
  endfacet
  facet normal 0.809015 -0.587788 0
    outer loop
      vertex 27.8145 0.777369 0
      vertex 27.5935 0.47318 6
      vertex 27.5935 0.47318 0
    endloop
  endfacet
  facet normal -0.968583 0.248692 0
    outer loop
      vertex 0.0118284 48.688 0
      vertex 0.105336 49.0522 6
      vertex 0.105336 49.0522 0
    endloop
  endfacet
  facet normal -0.968583 0.248692 0
    outer loop
      vertex 0.105336 49.0522 6
      vertex 0.0118284 48.688 0
      vertex 0.0118284 48.688 6
    endloop
  endfacet
  facet normal 0.187382 -0.982287 0
    outer loop
      vertex 26.5942 0.00296021 0
      vertex 26.9635 0.0734158 6
      vertex 26.5942 0.00296021 6
    endloop
  endfacet
  facet normal 0.187382 -0.982287 0
    outer loop
      vertex 26.9635 0.0734158 6
      vertex 26.5942 0.00296021 0
      vertex 26.9635 0.0734158 0
    endloop
  endfacet
  facet normal 0.637423 -0.770514 0
    outer loop
      vertex 27.3037 0.233509 0
      vertex 27.5935 0.47318 6
      vertex 27.3037 0.233509 6
    endloop
  endfacet
  facet normal 0.637423 -0.770514 0
    outer loop
      vertex 27.5935 0.47318 6
      vertex 27.3037 0.233509 0
      vertex 27.5935 0.47318 0
    endloop
  endfacet
  facet normal -0.535825 -0.844329 0
    outer loop
      vertex 0.543864 0.344231 0
      vertex 0.861332 0.14276 6
      vertex 0.543864 0.344231 6
    endloop
  endfacet
  facet normal -0.535825 -0.844329 -0
    outer loop
      vertex 0.861332 0.14276 6
      vertex 0.543864 0.344231 0
      vertex 0.861332 0.14276 0
    endloop
  endfacet
  facet normal -0.876307 0.481754 0
    outer loop
      vertex 0.105336 49.0522 0
      vertex 0.286475 49.3817 6
      vertex 0.286475 49.3817 0
    endloop
  endfacet
  facet normal -0.876307 0.481754 0
    outer loop
      vertex 0.286475 49.3817 6
      vertex 0.105336 49.0522 0
      vertex 0.105336 49.0522 6
    endloop
  endfacet
  facet normal -1 0 0
    outer loop
      vertex 0.0118284 1.312 0
      vertex 0.0118284 48.688 6
      vertex 0.0118284 48.688 0
    endloop
  endfacet
  facet normal -1 -0 0
    outer loop
      vertex 0.0118284 48.688 6
      vertex 0.0118284 1.312 0
      vertex 0.0118284 1.312 6
    endloop
  endfacet
  facet normal 0 1 -0
    outer loop
      vertex 26.5942 49.997 0
      vertex 1.59418 49.997 6
      vertex 26.5942 49.997 6
    endloop
  endfacet
  facet normal 0 1 0
    outer loop
      vertex 1.59418 49.997 6
      vertex 26.5942 49.997 0
      vertex 1.59418 49.997 0
    endloop
  endfacet
  facet normal 0.992114 0.125337 0
    outer loop
      vertex 28 48.5 6
      vertex 27.9529 48.873 0
      vertex 27.9529 48.873 6
    endloop
  endfacet
  facet normal 0.992114 0.125337 0
    outer loop
      vertex 27.9529 48.873 0
      vertex 28 48.5 6
      vertex 28 48.5 0
    endloop
  endfacet
  facet normal 0.929779 -0.368119 0
    outer loop
      vertex 27.8145 0.777369 6
      vertex 27.9529 1.12697 0
      vertex 27.9529 1.12697 6
    endloop
  endfacet
  facet normal 0.929779 -0.368119 0
    outer loop
      vertex 27.9529 1.12697 0
      vertex 27.8145 0.777369 6
      vertex 27.8145 0.777369 0
    endloop
  endfacet
  facet normal 0.425779 -0.904827 0
    outer loop
      vertex 26.9635 0.0734158 0
      vertex 27.3037 0.233509 6
      vertex 26.9635 0.0734158 6
    endloop
  endfacet
  facet normal 0.425779 -0.904827 0
    outer loop
      vertex 27.3037 0.233509 6
      vertex 26.9635 0.0734158 0
      vertex 27.3037 0.233509 0
    endloop
  endfacet
  facet normal 0.929778 0.368121 0
    outer loop
      vertex 27.9529 48.873 6
      vertex 27.8145 49.2226 0
      vertex 27.8145 49.2226 6
    endloop
  endfacet
  facet normal 0.929778 0.368121 0
    outer loop
      vertex 27.8145 49.2226 0
      vertex 27.9529 48.873 6
      vertex 27.9529 48.873 0
    endloop
  endfacet
  facet normal 0.992114 -0.125337 0
    outer loop
      vertex 27.9529 1.12697 6
      vertex 28 1.5 0
      vertex 28 1.5 6
    endloop
  endfacet
  facet normal 0.992114 -0.125337 0
    outer loop
      vertex 28 1.5 0
      vertex 27.9529 1.12697 6
      vertex 27.9529 1.12697 0
    endloop
  endfacet
  facet normal -0.968583 -0.248691 0
    outer loop
      vertex 0.105336 0.947814 0
      vertex 0.0118284 1.312 6
      vertex 0.0118284 1.312 0
    endloop
  endfacet
  facet normal -0.968583 -0.248691 0
    outer loop
      vertex 0.0118284 1.312 6
      vertex 0.105336 0.947814 0
      vertex 0.105336 0.947814 6
    endloop
  endfacet
  facet normal -0.728969 -0.684547 0
    outer loop
      vertex 0.543864 0.344231 0
      vertex 0.286475 0.618322 6
      vertex 0.286475 0.618322 0
    endloop
  endfacet
  facet normal -0.728969 -0.684547 0
    outer loop
      vertex 0.286475 0.618322 6
      vertex 0.543864 0.344231 0
      vertex 0.543864 0.344231 6
    endloop
  endfacet
  facet normal -0.0627906 -0.998027 0
    outer loop
      vertex 1.21893 0.0265694 0
      vertex 1.59418 0.00296021 6
      vertex 1.21893 0.0265694 6
    endloop
  endfacet
  facet normal -0.0627906 -0.998027 -0
    outer loop
      vertex 1.59418 0.00296021 6
      vertex 1.21893 0.0265694 0
      vertex 1.59418 0.00296021 0
    endloop
  endfacet
  facet normal 0.637422 0.770515 -0
    outer loop
      vertex 27.5935 49.5268 0
      vertex 27.3037 49.7665 6
      vertex 27.5935 49.5268 6
    endloop
  endfacet
  facet normal 0.637422 0.770515 0
    outer loop
      vertex 27.3037 49.7665 6
      vertex 27.5935 49.5268 0
      vertex 27.3037 49.7665 0
    endloop
  endfacet
  facet normal 0.425775 0.904829 -0
    outer loop
      vertex 27.3037 49.7665 0
      vertex 26.9635 49.9266 6
      vertex 27.3037 49.7665 6
    endloop
  endfacet
  facet normal 0.425775 0.904829 0
    outer loop
      vertex 26.9635 49.9266 6
      vertex 27.3037 49.7665 0
      vertex 26.9635 49.9266 0
    endloop
  endfacet
  facet normal -0.728971 0.684544 0
    outer loop
      vertex 0.286475 49.3817 0
      vertex 0.543864 49.6558 6
      vertex 0.543864 49.6558 0
    endloop
  endfacet
  facet normal -0.728971 0.684544 0
    outer loop
      vertex 0.543864 49.6558 6
      vertex 0.286475 49.3817 0
      vertex 0.286475 49.3817 6
    endloop
  endfacet
  facet normal -0.0627906 0.998027 0
    outer loop
      vertex 1.59418 49.997 0
      vertex 1.21893 49.9734 6
      vertex 1.59418 49.997 6
    endloop
  endfacet
  facet normal -0.0627906 0.998027 0
    outer loop
      vertex 1.21893 49.9734 6
      vertex 1.59418 49.997 0
      vertex 1.21893 49.9734 0
    endloop
  endfacet
  facet normal -0.309021 0.951055 0
    outer loop
      vertex 1.21893 49.9734 0
      vertex 0.861332 49.8572 6
      vertex 1.21893 49.9734 6
    endloop
  endfacet
  facet normal -0.309021 0.951055 0
    outer loop
      vertex 0.861332 49.8572 6
      vertex 1.21893 49.9734 0
      vertex 0.861332 49.8572 0
    endloop
  endfacet
  facet normal 0.187387 0.982286 -0
    outer loop
      vertex 26.9635 49.9266 0
      vertex 26.5942 49.997 6
      vertex 26.9635 49.9266 6
    endloop
  endfacet
  facet normal 0.187387 0.982286 0
    outer loop
      vertex 26.5942 49.997 6
      vertex 26.9635 49.9266 0
      vertex 26.5942 49.997 0
    endloop
  endfacet
  facet normal 0 0 -1
    outer loop
      vertex 26.5942 0.00296021 0
      vertex 28 1.5 0
      vertex 27.9529 1.12697 0
    endloop
  endfacet
  facet normal 0 0 -1
    outer loop
      vertex 18.1165 21.0569 0
      vertex 28 1.5 0
      vertex 18.25 20 0
    endloop
  endfacet
  facet normal 0 0 -1
    outer loop
      vertex 26.5942 0.00296021 0
      vertex 27.9529 1.12697 0
      vertex 27.8145 0.777369 0
    endloop
  endfacet
  facet normal 0 0 -1
    outer loop
      vertex 28 1.5 0
      vertex 18.1165 21.0569 0
      vertex 28 48.5 0
    endloop
  endfacet
  facet normal 0 0 -1
    outer loop
      vertex 26.5942 0.00296021 0
      vertex 27.8145 0.777369 0
      vertex 27.5935 0.47318 0
    endloop
  endfacet
  facet normal 0 0 -1
    outer loop
      vertex 17.7243 22.0475 0
      vertex 28 48.5 0
      vertex 18.1165 21.0569 0
    endloop
  endfacet
  facet normal 0 0 -1
    outer loop
      vertex 26.5942 0.00296021 0
      vertex 27.5935 0.47318 0
      vertex 27.3037 0.233509 0
    endloop
  endfacet
  facet normal 0 0 -1
    outer loop
      vertex 17.0981 22.9093 0
      vertex 28 48.5 0
      vertex 17.7243 22.0475 0
    endloop
  endfacet
  facet normal 0 0 -1
    outer loop
      vertex 26.5942 0.00296021 0
      vertex 27.3037 0.233509 0
      vertex 26.9635 0.0734158 0
    endloop
  endfacet
  facet normal 0 0 -1
    outer loop
      vertex 16.2773 23.5884 0
      vertex 28 48.5 0
      vertex 17.0981 22.9093 0
    endloop
  endfacet
  facet normal -0 0 -1
    outer loop
      vertex 28 1.5 0
      vertex 26.5942 0.00296021 0
      vertex 16.2773 16.4116 0
    endloop
  endfacet
  facet normal 0 0 -1
    outer loop
      vertex 15.3133 24.042 0
      vertex 28 48.5 0
      vertex 16.2773 23.5884 0
    endloop
  endfacet
  facet normal 0 0 -1
    outer loop
      vertex 14.2669 24.2416 0
      vertex 28 48.5 0
      vertex 15.3133 24.042 0
    endloop
  endfacet
  facet normal 0 0 -1
    outer loop
      vertex 28 1.5 0
      vertex 18.1165 18.9431 0
      vertex 18.25 20 0
    endloop
  endfacet
  facet normal 0 0 -1
    outer loop
      vertex 28 1.5 0
      vertex 17.7243 17.9525 0
      vertex 18.1165 18.9431 0
    endloop
  endfacet
  facet normal 0 0 -1
    outer loop
      vertex 28 1.5 0
      vertex 17.0981 17.0907 0
      vertex 17.7243 17.9525 0
    endloop
  endfacet
  facet normal 0 0 -1
    outer loop
      vertex 28 1.5 0
      vertex 16.2773 16.4116 0
      vertex 17.0981 17.0907 0
    endloop
  endfacet
  facet normal 0 0 -1
    outer loop
      vertex 26.5942 0.00296021 0
      vertex 15.3133 15.958 0
      vertex 16.2773 16.4116 0
    endloop
  endfacet
  facet normal 0 0 -1
    outer loop
      vertex 26.5942 0.00296021 0
      vertex 14.2669 15.7584 0
      vertex 15.3133 15.958 0
    endloop
  endfacet
  facet normal 0 0 -1
    outer loop
      vertex 1.59418 0.00296021 0
      vertex 14.2669 15.7584 0
      vertex 26.5942 0.00296021 0
    endloop
  endfacet
  facet normal -0 0 -1
    outer loop
      vertex 14.2669 15.7584 0
      vertex 1.59418 0.00296021 0
      vertex 13.2036 15.8253 0
    endloop
  endfacet
  facet normal -0 0 -1
    outer loop
      vertex 13.2036 15.8253 0
      vertex 1.59418 0.00296021 0
      vertex 12.1904 16.1545 0
    endloop
  endfacet
  facet normal 0 0 -1
    outer loop
      vertex 0.0118284 1.312 0
      vertex 12.1904 16.1545 0
      vertex 1.59418 0.00296021 0
    endloop
  endfacet
  facet normal -0 0 -1
    outer loop
      vertex 10.0484 18.4355 0
      vertex 0.0118284 1.312 0
      vertex 9.78351 19.4673 0
    endloop
  endfacet
  facet normal -0 0 -1
    outer loop
      vertex 10.5617 17.5019 0
      vertex 0.0118284 1.312 0
      vertex 10.0484 18.4355 0
    endloop
  endfacet
  facet normal -0 0 -1
    outer loop
      vertex 11.2909 16.7253 0
      vertex 0.0118284 1.312 0
      vertex 10.5617 17.5019 0
    endloop
  endfacet
  facet normal -0 0 -1
    outer loop
      vertex 12.1904 16.1545 0
      vertex 0.0118284 1.312 0
      vertex 11.2909 16.7253 0
    endloop
  endfacet
  facet normal 0 0 -1
    outer loop
      vertex 28 48.5 0
      vertex 26.5942 49.997 0
      vertex 27.9529 48.873 0
    endloop
  endfacet
  facet normal 0 0 -1
    outer loop
      vertex 27.9529 48.873 0
      vertex 26.5942 49.997 0
      vertex 27.8145 49.2226 0
    endloop
  endfacet
  facet normal 0 0 -1
    outer loop
      vertex 27.5935 49.5268 0
      vertex 26.5942 49.997 0
      vertex 27.3037 49.7665 0
    endloop
  endfacet
  facet normal 0 0 -1
    outer loop
      vertex 27.3037 49.7665 0
      vertex 26.5942 49.997 0
      vertex 26.9635 49.9266 0
    endloop
  endfacet
  facet normal 0 0 -1
    outer loop
      vertex 27.8145 49.2226 0
      vertex 26.5942 49.997 0
      vertex 27.5935 49.5268 0
    endloop
  endfacet
  facet normal -0 0 -1
    outer loop
      vertex 28 48.5 0
      vertex 14.2669 24.2416 0
      vertex 26.5942 49.997 0
    endloop
  endfacet
  facet normal 0 0 -1
    outer loop
      vertex 1.59418 49.997 0
      vertex 14.2669 24.2416 0
      vertex 13.2036 24.1747 0
    endloop
  endfacet
  facet normal 0 0 -1
    outer loop
      vertex 0.0118284 48.688 0
      vertex 13.2036 24.1747 0
      vertex 12.1904 23.8455 0
    endloop
  endfacet
  facet normal 0 0 -1
    outer loop
      vertex 0.0118284 48.688 0
      vertex 12.1904 23.8455 0
      vertex 11.2909 23.2747 0
    endloop
  endfacet
  facet normal 0 0 -1
    outer loop
      vertex 0.0118284 48.688 0
      vertex 11.2909 23.2747 0
      vertex 10.5617 22.4981 0
    endloop
  endfacet
  facet normal -0 0 -1
    outer loop
      vertex 9.78351 19.4673 0
      vertex 0.0118284 1.312 0
      vertex 9.78351 20.5327 0
    endloop
  endfacet
  facet normal 0 0 -1
    outer loop
      vertex 14.2669 24.2416 0
      vertex 1.59418 49.997 0
      vertex 26.5942 49.997 0
    endloop
  endfacet
  facet normal 0 0 -1
    outer loop
      vertex 0.0118284 48.688 0
      vertex 10.5617 22.4981 0
      vertex 10.0484 21.5645 0
    endloop
  endfacet
  facet normal 0 0 -1
    outer loop
      vertex 0.0118284 48.688 0
      vertex 9.78351 20.5327 0
      vertex 0.0118284 1.312 0
    endloop
  endfacet
  facet normal 0 0 -1
    outer loop
      vertex 0.0118284 1.312 0
      vertex 1.59418 0.00296021 0
      vertex 1.21893 0.0265694 0
    endloop
  endfacet
  facet normal 0 0 -1
    outer loop
      vertex 9.78351 20.5327 0
      vertex 0.0118284 48.688 0
      vertex 10.0484 21.5645 0
    endloop
  endfacet
  facet normal 0 0 -1
    outer loop
      vertex 0.0118284 1.312 0
      vertex 1.21893 0.0265694 0
      vertex 0.861332 0.14276 0
    endloop
  endfacet
  facet normal 0 0 -1
    outer loop
      vertex 13.2036 24.1747 0
      vertex 0.0118284 48.688 0
      vertex 1.59418 49.997 0
    endloop
  endfacet
  facet normal 0 0 -1
    outer loop
      vertex 0.0118284 1.312 0
      vertex 0.861332 0.14276 0
      vertex 0.543864 0.344231 0
    endloop
  endfacet
  facet normal 0 0 -1
    outer loop
      vertex 1.59418 49.997 0
      vertex 0.0118284 48.688 0
      vertex 1.21893 49.9734 0
    endloop
  endfacet
  facet normal 0 0 -1
    outer loop
      vertex 0.0118284 1.312 0
      vertex 0.543864 0.344231 0
      vertex 0.286475 0.618322 0
    endloop
  endfacet
  facet normal 0 0 -1
    outer loop
      vertex 1.21893 49.9734 0
      vertex 0.0118284 48.688 0
      vertex 0.861332 49.8572 0
    endloop
  endfacet
  facet normal 0 0 -1
    outer loop
      vertex 0.0118284 1.312 0
      vertex 0.286475 0.618322 0
      vertex 0.105336 0.947814 0
    endloop
  endfacet
  facet normal 0 0 -1
    outer loop
      vertex 0.861332 49.8572 0
      vertex 0.0118284 48.688 0
      vertex 0.543864 49.6558 0
    endloop
  endfacet
  facet normal 0 0 -1
    outer loop
      vertex 0.543864 49.6558 0
      vertex 0.0118284 48.688 0
      vertex 0.286475 49.3817 0
    endloop
  endfacet
  facet normal 0 0 -1
    outer loop
      vertex 0.286475 49.3817 0
      vertex 0.0118284 48.688 0
      vertex 0.105336 49.0522 0
    endloop
  endfacet
  facet normal -0.876307 -0.481753 0
    outer loop
      vertex 0.286475 0.618322 0
      vertex 0.105336 0.947814 6
      vertex 0.105336 0.947814 0
    endloop
  endfacet
  facet normal -0.876307 -0.481753 0
    outer loop
      vertex 0.105336 0.947814 6
      vertex 0.286475 0.618322 0
      vertex 0.286475 0.618322 6
    endloop
  endfacet
  facet normal -0.309019 -0.951056 0
    outer loop
      vertex 0.861332 0.14276 0
      vertex 1.21893 0.0265694 6
      vertex 0.861332 0.14276 6
    endloop
  endfacet
  facet normal -0.309019 -0.951056 -0
    outer loop
      vertex 1.21893 0.0265694 6
      vertex 0.861332 0.14276 0
      vertex 1.21893 0.0265694 0
    endloop
  endfacet
  facet normal 0.809017 0.587786 0
    outer loop
      vertex 27.8145 49.2226 6
      vertex 27.5935 49.5268 0
      vertex 27.5935 49.5268 6
    endloop
  endfacet
  facet normal 0.809017 0.587786 0
    outer loop
      vertex 27.5935 49.5268 0
      vertex 27.8145 49.2226 6
      vertex 27.8145 49.2226 0
    endloop
  endfacet
  facet normal -0.535824 0.84433 0
    outer loop
      vertex 0.861332 49.8572 0
      vertex 0.543864 49.6558 6
      vertex 0.861332 49.8572 6
    endloop
  endfacet
  facet normal -0.535824 0.84433 0
    outer loop
      vertex 0.543864 49.6558 6
      vertex 0.861332 49.8572 0
      vertex 0.543864 49.6558 0
    endloop
  endfacet
  facet normal -0.992115 -0.125334 0
    outer loop
      vertex 18.25 20 0
      vertex 18.1165 21.0569 6
      vertex 18.1165 21.0569 0
    endloop
  endfacet
  facet normal -0.992115 -0.125334 0
    outer loop
      vertex 18.1165 21.0569 6
      vertex 18.25 20 0
      vertex 18.25 20 6
    endloop
  endfacet
  facet normal 1 -0 0
    outer loop
      vertex 9.78351 19.4673 6
      vertex 9.78351 20.5327 0
      vertex 9.78351 20.5327 6
    endloop
  endfacet
  facet normal 1 0 0
    outer loop
      vertex 9.78351 20.5327 0
      vertex 9.78351 19.4673 6
      vertex 9.78351 19.4673 0
    endloop
  endfacet
  facet normal 0.0627904 -0.998027 0
    outer loop
      vertex 13.2036 24.1747 0
      vertex 14.2669 24.2416 6
      vertex 13.2036 24.1747 6
    endloop
  endfacet
  facet normal 0.0627904 -0.998027 0
    outer loop
      vertex 14.2669 24.2416 6
      vertex 13.2036 24.1747 0
      vertex 14.2669 24.2416 0
    endloop
  endfacet
  facet normal -0.637425 -0.770513 0
    outer loop
      vertex 16.2773 23.5884 0
      vertex 17.0981 22.9093 6
      vertex 16.2773 23.5884 6
    endloop
  endfacet
  facet normal -0.637425 -0.770513 -0
    outer loop
      vertex 17.0981 22.9093 6
      vertex 16.2773 23.5884 0
      vertex 17.0981 22.9093 0
    endloop
  endfacet
  facet normal -0.929777 -0.368123 0
    outer loop
      vertex 18.1165 21.0569 0
      vertex 17.7243 22.0475 6
      vertex 17.7243 22.0475 0
    endloop
  endfacet
  facet normal -0.929777 -0.368123 0
    outer loop
      vertex 17.7243 22.0475 6
      vertex 18.1165 21.0569 0
      vertex 18.1165 21.0569 6
    endloop
  endfacet
  facet normal 0.728968 -0.684547 0
    outer loop
      vertex 10.5617 22.4981 6
      vertex 11.2909 23.2747 0
      vertex 11.2909 23.2747 6
    endloop
  endfacet
  facet normal 0.728968 -0.684547 0
    outer loop
      vertex 11.2909 23.2747 0
      vertex 10.5617 22.4981 6
      vertex 10.5617 22.4981 0
    endloop
  endfacet
  facet normal 0.535827 -0.844328 0
    outer loop
      vertex 11.2909 23.2747 0
      vertex 12.1904 23.8455 6
      vertex 11.2909 23.2747 6
    endloop
  endfacet
  facet normal 0.535827 -0.844328 0
    outer loop
      vertex 12.1904 23.8455 6
      vertex 11.2909 23.2747 0
      vertex 12.1904 23.8455 0
    endloop
  endfacet
  facet normal -0.929777 0.368123 0
    outer loop
      vertex 17.7243 17.9525 0
      vertex 18.1165 18.9431 6
      vertex 18.1165 18.9431 0
    endloop
  endfacet
  facet normal -0.929777 0.368123 0
    outer loop
      vertex 18.1165 18.9431 6
      vertex 17.7243 17.9525 0
      vertex 17.7243 17.9525 6
    endloop
  endfacet
  facet normal -0.809016 -0.587786 0
    outer loop
      vertex 17.7243 22.0475 0
      vertex 17.0981 22.9093 6
      vertex 17.0981 22.9093 0
    endloop
  endfacet
  facet normal -0.809016 -0.587786 0
    outer loop
      vertex 17.0981 22.9093 6
      vertex 17.7243 22.0475 0
      vertex 17.7243 22.0475 6
    endloop
  endfacet
  facet normal -0.187383 -0.982287 0
    outer loop
      vertex 14.2669 24.2416 0
      vertex 15.3133 24.042 6
      vertex 14.2669 24.2416 6
    endloop
  endfacet
  facet normal -0.187383 -0.982287 -0
    outer loop
      vertex 15.3133 24.042 6
      vertex 14.2669 24.2416 0
      vertex 15.3133 24.042 0
    endloop
  endfacet
  facet normal -0.425778 -0.904828 0
    outer loop
      vertex 15.3133 24.042 0
      vertex 16.2773 23.5884 6
      vertex 15.3133 24.042 6
    endloop
  endfacet
  facet normal -0.425778 -0.904828 -0
    outer loop
      vertex 16.2773 23.5884 6
      vertex 15.3133 24.042 0
      vertex 16.2773 23.5884 0
    endloop
  endfacet
  facet normal 0.876307 -0.481754 0
    outer loop
      vertex 10.0484 21.5645 6
      vertex 10.5617 22.4981 0
      vertex 10.5617 22.4981 6
    endloop
  endfacet
  facet normal 0.876307 -0.481754 0
    outer loop
      vertex 10.5617 22.4981 0
      vertex 10.0484 21.5645 6
      vertex 10.0484 21.5645 0
    endloop
  endfacet
  facet normal 0.968583 -0.24869 0
    outer loop
      vertex 9.78351 20.5327 6
      vertex 10.0484 21.5645 0
      vertex 10.0484 21.5645 6
    endloop
  endfacet
  facet normal 0.968583 -0.24869 0
    outer loop
      vertex 10.0484 21.5645 0
      vertex 9.78351 20.5327 6
      vertex 9.78351 20.5327 0
    endloop
  endfacet
  facet normal 0.309018 -0.951056 0
    outer loop
      vertex 12.1904 23.8455 0
      vertex 13.2036 24.1747 6
      vertex 12.1904 23.8455 6
    endloop
  endfacet
  facet normal 0.309018 -0.951056 0
    outer loop
      vertex 13.2036 24.1747 6
      vertex 12.1904 23.8455 0
      vertex 13.2036 24.1747 0
    endloop
  endfacet
  facet normal -0.187382 0.982287 0
    outer loop
      vertex 15.3133 15.958 0
      vertex 14.2669 15.7584 6
      vertex 15.3133 15.958 6
    endloop
  endfacet
  facet normal -0.187382 0.982287 0
    outer loop
      vertex 14.2669 15.7584 6
      vertex 15.3133 15.958 0
      vertex 14.2669 15.7584 0
    endloop
  endfacet
  facet normal -0.637425 0.770513 0
    outer loop
      vertex 17.0981 17.0907 0
      vertex 16.2773 16.4116 6
      vertex 17.0981 17.0907 6
    endloop
  endfacet
  facet normal -0.637425 0.770513 0
    outer loop
      vertex 16.2773 16.4116 6
      vertex 17.0981 17.0907 0
      vertex 16.2773 16.4116 0
    endloop
  endfacet
  facet normal 0.535828 0.844327 -0
    outer loop
      vertex 12.1904 16.1545 0
      vertex 11.2909 16.7253 6
      vertex 12.1904 16.1545 6
    endloop
  endfacet
  facet normal 0.535828 0.844327 0
    outer loop
      vertex 11.2909 16.7253 6
      vertex 12.1904 16.1545 0
      vertex 11.2909 16.7253 0
    endloop
  endfacet
  facet normal 0.0627904 0.998027 -0
    outer loop
      vertex 14.2669 15.7584 0
      vertex 13.2036 15.8253 6
      vertex 14.2669 15.7584 6
    endloop
  endfacet
  facet normal 0.0627904 0.998027 0
    outer loop
      vertex 13.2036 15.8253 6
      vertex 14.2669 15.7584 0
      vertex 13.2036 15.8253 0
    endloop
  endfacet
  facet normal 0.728968 0.684548 0
    outer loop
      vertex 11.2909 16.7253 6
      vertex 10.5617 17.5019 0
      vertex 10.5617 17.5019 6
    endloop
  endfacet
  facet normal 0.728968 0.684548 0
    outer loop
      vertex 10.5617 17.5019 0
      vertex 11.2909 16.7253 6
      vertex 11.2909 16.7253 0
    endloop
  endfacet
  facet normal 0.968583 0.24869 0
    outer loop
      vertex 10.0484 18.4355 6
      vertex 9.78351 19.4673 0
      vertex 9.78351 19.4673 6
    endloop
  endfacet
  facet normal 0.968583 0.24869 0
    outer loop
      vertex 9.78351 19.4673 0
      vertex 10.0484 18.4355 6
      vertex 10.0484 18.4355 0
    endloop
  endfacet
  facet normal -0.992115 0.125334 0
    outer loop
      vertex 18.1165 18.9431 0
      vertex 18.25 20 6
      vertex 18.25 20 0
    endloop
  endfacet
  facet normal -0.992115 0.125334 0
    outer loop
      vertex 18.25 20 6
      vertex 18.1165 18.9431 0
      vertex 18.1165 18.9431 6
    endloop
  endfacet
  facet normal -0.425779 0.904827 0
    outer loop
      vertex 16.2773 16.4116 0
      vertex 15.3133 15.958 6
      vertex 16.2773 16.4116 6
    endloop
  endfacet
  facet normal -0.425779 0.904827 0
    outer loop
      vertex 15.3133 15.958 6
      vertex 16.2773 16.4116 0
      vertex 15.3133 15.958 0
    endloop
  endfacet
  facet normal -0.809016 0.587787 0
    outer loop
      vertex 17.0981 17.0907 0
      vertex 17.7243 17.9525 6
      vertex 17.7243 17.9525 0
    endloop
  endfacet
  facet normal -0.809016 0.587787 0
    outer loop
      vertex 17.7243 17.9525 6
      vertex 17.0981 17.0907 0
      vertex 17.0981 17.0907 6
    endloop
  endfacet
  facet normal 0.309017 0.951057 -0
    outer loop
      vertex 13.2036 15.8253 0
      vertex 12.1904 16.1545 6
      vertex 13.2036 15.8253 6
    endloop
  endfacet
  facet normal 0.309017 0.951057 0
    outer loop
      vertex 12.1904 16.1545 6
      vertex 13.2036 15.8253 0
      vertex 12.1904 16.1545 0
    endloop
  endfacet
  facet normal 0.876307 0.481753 0
    outer loop
      vertex 10.5617 17.5019 6
      vertex 10.0484 18.4355 0
      vertex 10.0484 18.4355 6
    endloop
  endfacet
  facet normal 0.876307 0.481753 0
    outer loop
      vertex 10.0484 18.4355 0
      vertex 10.5617 17.5019 6
      vertex 10.5617 17.5019 0
    endloop
  endfacet
endsolid OpenSCAD_Model
